<svg width="142" height="53" viewBox="0 0 142 53" fill="none" xmlns="http://www.w3.org/2000/svg">
<g clip-path="url(#clip0_105_48)">
<path d="M93.4467 19.7666L97.5784 21.6397C94.6159 19.8408 91.4412 18.5288 88.1542 17.8068C86.7729 17.5015 85.3873 17.2993 83.9976 17.1797C83.981 17.2168 83.9727 17.2333 83.9727 17.2333L93.4467 19.7624V19.7666Z" fill="#CE2302"/>
<path d="M114.646 30.8985C114.575 30.9068 114.542 30.9068 114.542 30.9068C114.542 30.9068 114.579 30.9026 114.646 30.8985C114.983 30.849 116.169 30.5313 118.586 28.4354C121.503 25.9063 125.015 19.0327 124.166 17.4113C123.321 15.7899 132.595 6.37891 132.595 6.37891L112.025 19.404L106.195 25.5474L97.5742 21.6402C104.302 25.7206 109.923 32.3095 113.219 40.2765C118.141 42.7891 141.333 47.2284 141.333 47.2284C141.333 47.2284 124.777 40.359 122.593 35.3007C120.575 30.6345 115.432 30.8408 114.646 30.9026V30.8985Z" fill="#CE2302"/>
<path d="M114.646 30.8984C114.579 30.9026 114.542 30.9067 114.542 30.9067C114.542 30.9067 114.579 30.9067 114.646 30.8984Z" fill="#CE2302"/>
<path d="M54.1356 23.9705C63.7719 20.0469 73.9284 16.3254 83.9933 17.1836C84.218 16.6555 86.0737 12.4719 88.9322 11.457C91.9862 10.3719 81.784 6.03978 75.9547 6.03978C70.1255 6.03978 69.0312 8.93196 69.0312 8.93196L60.2852 4.95882L57.3685 0.263664C57.3685 0.263664 56.2742 -1.18037 49.7168 2.79278C45.0817 5.60245 40.2635 8.41211 37.8378 9.81489C36.7851 10.4255 35.9072 11.2878 35.2789 12.3234L35.1458 12.542L34.7796 12.9051C33.8684 12.2285 30.0114 13.5776 28.9504 13.9902C23.8534 15.9747 12.016 20.1005 9.79 23.3846C7.09381 27.3578 9.64437 28.4429 9.64437 28.4429L15.9979 29.5898C17.0922 29.7879 18.1365 30.2128 19.056 30.8317L20.5082 31.8136C20.6371 31.9003 20.5498 32.0983 20.3958 32.0653L16.2558 31.1164C15.9147 31.038 15.5693 31.0215 15.224 31.0545C16.8966 31.5661 18.5942 31.9168 20.2876 32.0942C31.8546 33.2948 43.1719 28.4429 54.1356 23.9787V23.9705Z" fill="#CE2302"/>
<path d="M97.5787 21.636L93.4471 19.7629L83.973 17.2338C83.973 17.2338 83.9813 17.2131 83.9979 17.1801C73.933 16.322 63.7724 20.0434 54.1402 23.9671C43.1765 28.4312 31.8592 33.2831 20.2922 32.0825C18.5988 31.9051 16.9012 31.5544 15.2286 31.0428C14.9956 31.0634 14.7626 31.1047 14.5379 31.1748L12.0705 31.0593C11.4797 31.0304 11.2217 31.7896 11.7085 32.1238L20.4961 38.1516C20.9164 38.4404 21.3657 38.692 21.8317 38.8983L29.1547 42.1577C30.2282 42.6363 31.389 42.8839 32.5665 42.8839H36.0949L42.0739 48.301L49.3178 52.039C50.5411 52.6702 51.9017 53.0003 53.2789 53.0003H58.2469L51.1611 48.6105C50.4537 48.1731 49.8795 47.5584 49.4884 46.8322L47.1709 42.5249C47.1709 42.5249 53.7283 44.332 60.2856 44.332C66.843 44.332 73.4004 41.0809 73.4004 41.0809C73.4004 41.0809 75.951 46.1391 82.5084 47.2242C89.0658 48.3093 95.6231 47.9462 95.6231 47.9462C95.6231 47.9462 87.6095 45.4171 85.4209 42.888C83.2365 40.3589 83.2365 38.5518 83.2365 38.5518L98.5399 35.3006L106.129 32.231C106.129 32.231 106.92 36.7488 112.021 39.6369C112.408 39.8555 112.811 40.0701 113.215 40.2764C109.92 32.3094 104.298 25.7164 97.5704 21.6401L97.5787 21.636Z" fill="#CE2302"/>
<path d="M0.719815 21.7015L0 27.3992L0.357827 32.8123C0.357827 32.8123 1.88899 32.8865 1.84323 32.8123C1.7933 32.738 2.15528 33.4518 2.51311 33.8066C2.87094 34.1614 3.94858 33.0928 3.94858 33.0928C3.94858 33.0928 3.94858 34.5162 4.66839 34.871C5.38821 35.2259 6.10386 33.4476 6.10386 33.4476C6.10386 33.4476 7.1815 33.8025 7.1815 34.1614C7.1815 34.5203 7.90132 34.5162 8.25915 34.1614C8.61697 33.8066 10.7723 33.8066 10.7723 33.8066C10.7723 33.8066 16.1563 37.722 17.5918 38.7905C19.0272 39.8591 25.8509 43.7745 30.1573 43.7745H34.4637L40.2098 44.1293H43.0682C43.0682 44.1293 45.236 43.0607 45.9558 43.4156C46.6756 43.7704 46.6756 44.1293 47.7491 43.4156C48.8226 42.7018 50.4245 44.4841 51.0611 44.1293C51.6977 43.7745 55.2884 43.7745 55.2884 43.0607C55.2884 42.347 54.9306 43.7745 56.7239 43.7745C58.5172 43.7745 61.7501 43.0607 61.7501 43.0607C61.7501 43.0607 62.4699 43.7745 63.1856 43.7745C63.9012 43.7745 64.9789 44.4883 66.7763 43.4197C68.5738 42.3511 67.4962 42.3511 68.9316 42.7059C70.3671 43.0607 70.0093 43.7745 71.8026 43.4197L73.5959 43.0649C73.5959 43.0649 74.6735 43.0649 75.3892 43.4197C76.1048 43.7745 77.5444 43.4197 79.6956 43.7745C81.8467 44.1293 80.5735 44.938 83.0075 44.1788C85.4416 43.4197 86.1572 43.7745 87.9547 44.1293C89.7522 44.4841 94.0586 44.1293 94.7742 43.7745C95.4899 43.4197 98.365 44.4883 99.0806 43.7745C99.7963 43.0607 100.158 43.0607 100.516 43.4197C100.874 43.7786 104.024 44.0262 104.465 43.7745C104.465 43.7745 106.62 43.0607 107.336 41.9963C108.051 40.9318 108.413 39.5043 108.413 39.5043C108.413 39.5043 107.693 37.755 108.413 37.2062C109.133 36.6575 109.849 35.9437 109.491 34.5203L109.133 33.0969C109.133 33.0969 105.542 30.605 107.34 28.4678C109.137 26.3306 110.044 23.6365 109.591 23.0259C109.137 22.4153 110.215 21.3467 109.137 19.5685C108.06 17.7902 108.779 17.7902 108.779 16.3627C108.779 14.9352 108.779 15.6489 107.344 14.2255C105.908 12.8021 104.831 12.8021 104.831 12.8021H103.4C103.4 12.8021 103.4 12.4473 102.68 12.4473C101.96 12.4473 101.839 11.7336 101.182 12.4473C100.524 13.1611 101.244 13.1611 100.167 12.8021C99.089 12.4432 100.886 12.0884 98.3733 11.7336C95.8602 11.3787 94.4247 12.8021 94.4247 12.8021C94.4247 12.8021 93.7049 12.8021 93.3471 12.4473C92.9893 12.0925 91.9116 12.0925 91.9116 12.0925H89.7563C89.7563 12.0925 89.0365 13.1611 88.3209 13.1611C87.6052 13.1611 86.1656 12.4473 86.1656 12.4473H83.6525C83.6525 12.4473 80.4195 11.3787 77.1908 12.4473C73.9578 13.5159 73.2422 13.5159 72.5224 13.5159H69.6514L68.5738 14.2297C68.5738 14.2297 66.4185 14.2297 66.4185 13.8749C66.4185 13.52 63.9054 12.8063 63.9054 12.8063C63.9054 12.8063 62.4699 13.1611 61.7501 13.1611C61.0303 13.1611 61.0303 12.4473 59.9568 12.4473H56.7239C56.7239 12.4473 54.5686 12.8021 53.853 12.8021C53.1373 12.8021 51.3399 12.0884 51.3399 12.0884C51.3399 12.0884 49.5466 11.7336 48.4689 12.4432C47.3913 13.1528 47.0334 12.4432 46.3136 12.0884C45.5938 11.7336 40.5676 12.0884 40.5676 12.0884C40.5676 12.0884 33.0283 11.7336 28.3599 12.4432C23.6915 13.157 20.8205 14.9352 19.7429 15.6489C18.6653 16.3627 16.1521 18.1409 16.1521 18.1409L14.3588 19.5643L9.33263 22.0563C9.33263 22.0563 8.61281 22.4111 8.61281 22.0563C8.61281 21.7015 8.97064 20.9877 8.61281 20.9877C8.25499 20.9877 8.61281 20.9877 7.893 21.3425C7.17318 21.6974 6.81536 22.0563 6.45753 21.6974C6.0997 21.3384 6.81536 20.6288 6.45753 20.274C6.0997 19.9191 5.73771 19.9191 5.73771 19.9191C5.73771 19.9191 5.37989 19.9191 5.0179 20.6329C4.65591 21.3467 4.29808 22.0563 3.94026 22.0563C3.58243 22.0563 3.22044 20.9877 3.22044 20.9877H2.86262C2.86262 20.9877 2.50479 21.3425 2.50479 21.7015C2.50479 22.0604 2.14696 22.0563 2.14696 22.0563L1.42715 21.7015L1.06932 21.3467L0.711493 21.7015H0.719815Z" fill="#CE2302"/>
</g>
<defs>
<clipPath id="clip0_105_48">
<rect width="141.333" height="53" fill="white"/>
</clipPath>
</defs>
</svg>
