<svg width="143" height="53" viewBox="0 0 143 53" fill="none" xmlns="http://www.w3.org/2000/svg">
<g clip-path="url(#clip0_85_45)">
<path d="M94.1755 19.7668L98.3072 21.6399C95.3447 19.8411 92.17 18.5291 88.883 17.8071C87.5016 17.5017 86.1161 17.2996 84.7264 17.1799C84.7097 17.2171 84.7014 17.2336 84.7014 17.2336L94.1755 19.7627V19.7668Z" fill="#81B47E"/>
<path d="M115.375 30.898C115.304 30.9063 115.271 30.9063 115.271 30.9063C115.271 30.9063 115.308 30.9022 115.375 30.898C115.712 30.8485 116.898 30.5308 119.315 28.4349C122.232 25.9058 125.743 19.0322 124.895 17.4108C124.05 15.7894 133.324 6.37842 133.324 6.37842L112.753 19.4036L106.924 25.5469L98.3031 21.6397C105.031 25.7202 110.652 32.3091 113.948 40.276C118.87 42.7886 142.062 47.2279 142.062 47.2279C142.062 47.2279 125.506 40.3585 123.322 35.3003C121.304 30.634 116.161 30.8403 115.375 30.9022V30.898Z" fill="#81B47E"/>
<path d="M115.375 30.8982C115.308 30.9023 115.271 30.9064 115.271 30.9064C115.271 30.9064 115.308 30.9064 115.375 30.8982Z" fill="#81B47E"/>
<path d="M54.8646 23.971C64.5009 20.0474 74.6574 16.3259 84.7223 17.184C84.947 16.6559 86.8027 12.4724 89.6612 11.4574C92.7152 10.3724 82.513 6.04027 76.6837 6.04027C70.8545 6.04027 69.7602 8.93245 69.7602 8.93245L61.0142 4.95931L58.0975 0.264152C58.0975 0.264152 57.0032 -1.17988 50.4458 2.79327C45.8107 5.60293 40.9925 8.4126 38.5668 9.81537C37.5141 10.426 36.6362 11.2883 36.0079 12.3239L35.8748 12.5425L35.5086 12.9056C34.5974 12.229 30.7404 13.5781 29.6794 13.9907C24.5824 15.9752 12.745 20.101 10.519 23.3851C7.82281 27.3583 10.3734 28.4434 10.3734 28.4434L16.7269 29.5903C17.8212 29.7884 18.8655 30.2133 19.7851 30.8322L21.2372 31.8141C21.3661 31.9008 21.2788 32.0988 21.1248 32.0658L16.9848 31.1169C16.6437 31.0385 16.2983 31.022 15.953 31.055C17.6256 31.5666 19.3232 31.9173 21.0166 32.0947C32.5836 33.2953 43.9009 28.4433 54.8646 23.9792V23.971Z" fill="#81B47E"/>
<path d="M98.3072 21.6358L94.1756 19.7626L84.7015 17.2335C84.7015 17.2335 84.7098 17.2129 84.7264 17.1799C74.6615 16.3217 64.5009 20.0432 54.8687 23.9668C43.905 28.4309 32.5877 33.2829 21.0208 32.0823C19.3273 31.9049 17.6297 31.5542 15.9571 31.0426C15.7241 31.0632 15.4911 31.1045 15.2664 31.1746L12.7991 31.0591C12.2082 31.0302 11.9503 31.7893 12.4371 32.1235L21.2246 38.1513C21.6449 38.4401 22.0942 38.6918 22.5602 38.8981L29.8832 42.1575C30.9567 42.6361 32.1175 42.8836 33.295 42.8836H36.8234L42.8024 48.3008L50.0463 52.0388C51.2696 52.67 52.6302 53.0001 54.0074 53.0001H58.9754L51.8896 48.6102C51.1822 48.1729 50.6081 47.5581 50.2169 46.832L47.8994 42.5247C47.8994 42.5247 54.4568 44.3318 61.0142 44.3318C67.5715 44.3318 74.1289 41.0806 74.1289 41.0806C74.1289 41.0806 76.6795 46.1389 83.2369 47.224C89.7943 48.309 96.3517 47.946 96.3517 47.946C96.3517 47.946 88.338 45.4169 86.1494 42.8877C83.965 40.3586 83.965 38.5515 83.965 38.5515L99.2684 35.3004L106.858 32.2308C106.858 32.2308 107.648 36.7486 112.749 39.6366C113.136 39.8553 113.54 40.0698 113.943 40.2761C110.648 32.3092 105.027 25.7162 98.2989 21.6399L98.3072 21.6358Z" fill="#81B47E"/>
<path d="M1.44845 21.7017L0.728638 27.3995L1.08646 32.8125C1.08646 32.8125 2.61763 32.8868 2.57186 32.8125C2.52193 32.7382 2.88392 33.452 3.24175 33.8068C3.59958 34.1616 4.67722 33.0931 4.67722 33.0931C4.67722 33.0931 4.67722 34.5165 5.39703 34.8713C6.11685 35.2261 6.8325 33.4479 6.8325 33.4479C6.8325 33.4479 7.91014 33.8027 7.91014 34.1616C7.91014 34.5206 8.62996 34.5165 8.98778 34.1616C9.34561 33.8068 11.5009 33.8068 11.5009 33.8068C11.5009 33.8068 16.8849 37.7222 18.3204 38.7908C19.7559 39.8594 26.5796 43.7748 30.886 43.7748H35.1924L40.9384 44.1296H43.7969C43.7969 44.1296 45.9646 43.061 46.6844 43.4158C47.4043 43.7706 47.4043 44.1296 48.4777 43.4158C49.5512 42.702 51.1531 44.4844 51.7897 44.1296C52.4263 43.7748 56.0171 43.7748 56.0171 43.061C56.0171 42.3472 55.6592 43.7748 57.4525 43.7748C59.2458 43.7748 62.4788 43.061 62.4788 43.061C62.4788 43.061 63.1986 43.7748 63.9142 43.7748C64.6299 43.7748 65.7075 44.4885 67.505 43.4199C69.3024 42.3514 68.2248 42.3514 69.6603 42.7062C71.0957 43.061 70.7379 43.7748 72.5312 43.4199L74.3245 43.0651C74.3245 43.0651 75.4021 43.0651 76.1178 43.4199C76.8334 43.7748 78.2731 43.4199 80.4242 43.7748C82.5753 44.1296 81.3021 44.9382 83.7362 44.1791C86.1702 43.4199 86.8859 43.7748 88.6833 44.1296C90.4808 44.4844 94.7872 44.1296 95.5029 43.7748C96.2185 43.4199 99.0936 44.4885 99.8093 43.7748C100.525 43.061 100.887 43.061 101.245 43.4199C101.603 43.7789 104.752 44.0264 105.193 43.7748C105.193 43.7748 107.349 43.061 108.064 41.9965C108.78 40.9321 109.142 39.5046 109.142 39.5046C109.142 39.5046 108.422 37.7552 109.142 37.2065C109.862 36.6578 110.577 35.944 110.22 34.5206L109.862 33.0972C109.862 33.0972 106.271 30.6052 108.068 28.468C109.866 26.3309 110.773 23.6367 110.319 23.0261C109.866 22.4155 110.944 21.3469 109.866 19.5687C108.788 17.7905 109.508 17.7905 109.508 16.363C109.508 14.9354 109.508 15.6492 108.073 14.2258C106.637 12.8024 105.559 12.8024 105.559 12.8024H104.128C104.128 12.8024 104.128 12.4476 103.408 12.4476C102.689 12.4476 102.568 11.7338 101.91 12.4476C101.253 13.1613 101.973 13.1613 100.895 12.8024C99.8176 12.4434 101.615 12.0886 99.1019 11.7338C96.5888 11.379 95.1534 12.8024 95.1534 12.8024C95.1534 12.8024 94.4335 12.8024 94.0757 12.4476C93.7179 12.0928 92.6402 12.0928 92.6402 12.0928H90.485C90.485 12.0928 89.7651 13.1613 89.0495 13.1613C88.3338 13.1613 86.8942 12.4476 86.8942 12.4476H84.3811C84.3811 12.4476 81.1482 11.379 77.9194 12.4476C74.6865 13.5162 73.9708 13.5162 73.251 13.5162H70.3801L69.3024 14.2299C69.3024 14.2299 67.1472 14.2299 67.1472 13.8751C67.1472 13.5203 64.634 12.8065 64.634 12.8065C64.634 12.8065 63.1986 13.1613 62.4788 13.1613C61.7589 13.1613 61.7589 12.4476 60.6855 12.4476H57.4525C57.4525 12.4476 55.2972 12.8024 54.5816 12.8024C53.8659 12.8024 52.0685 12.0886 52.0685 12.0886C52.0685 12.0886 50.2752 11.7338 49.1975 12.4434C48.1199 13.1531 47.7621 12.4434 47.0423 12.0886C46.3225 11.7338 41.2962 12.0886 41.2962 12.0886C41.2962 12.0886 33.7569 11.7338 29.0885 12.4434C24.4201 13.1572 21.5492 14.9354 20.4715 15.6492C19.3939 16.363 16.8808 18.1412 16.8808 18.1412L15.0875 19.5646L10.0613 22.0566C10.0613 22.0566 9.34145 22.4114 9.34145 22.0566C9.34145 21.7017 9.69928 20.988 9.34145 20.988C8.98362 20.988 9.34145 20.988 8.62163 21.3428C7.90182 21.6976 7.54399 22.0566 7.18617 21.6976C6.82834 21.3387 7.54399 20.629 7.18617 20.2742C6.82834 19.9194 6.46635 19.9194 6.46635 19.9194C6.46635 19.9194 6.10852 19.9194 5.74654 20.6332C5.38455 21.3469 5.02672 22.0566 4.6689 22.0566C4.31107 22.0566 3.94908 20.988 3.94908 20.988H3.59125C3.59125 20.988 3.23343 21.3428 3.23343 21.7017C3.23343 22.0607 2.8756 22.0566 2.8756 22.0566L2.15578 21.7017L1.79796 21.3469L1.44013 21.7017H1.44845Z" fill="#81B47E"/>
</g>
<defs>
<clipPath id="clip0_85_45">
<rect width="141.333" height="53" fill="white" transform="translate(0.728638)"/>
</clipPath>
</defs>
</svg>
