<?xml version="1.0" encoding="UTF-8"?><svg id="Layer_1" xmlns="http://www.w3.org/2000/svg" width="503" height="215" viewBox="0 0 503 215"><defs><style>.cls-1{fill:#fff;}</style></defs><path class="cls-1" d="M58.42,18.71c0,1.87-1.4,3.03-3.65,3.03h-1.69v2.31h-1.94v-8.4h3.63c2.24,0,3.65,1.16,3.65,3.05ZM56.46,18.71c0-.92-.6-1.46-1.79-1.46h-1.58v2.91h1.58c1.19,0,1.79-.54,1.79-1.45Z"/><path class="cls-1" d="M59.79,15.16h1.87v8.9h-1.87v-8.9Z"/><path class="cls-1" d="M69.12,20.37v3.68h-1.75v-.8c-.35.59-1.02.9-1.97.9-1.51,0-2.41-.84-2.41-1.96s.8-1.93,2.77-1.93h1.49c0-.8-.48-1.27-1.49-1.27-.68,0-1.39.23-1.86.6l-.67-1.31c.71-.5,1.75-.78,2.78-.78,1.97,0,3.11.91,3.11,2.87ZM67.25,22.02v-.66h-1.28c-.88,0-1.15.32-1.15.76,0,.47.4.78,1.06.78.62,0,1.16-.29,1.38-.88Z"/><path class="cls-1" d="M70.19,23.45l.62-1.34c.58.37,1.45.62,2.24.62.86,0,1.19-.23,1.19-.59,0-1.06-3.9.02-3.9-2.55,0-1.22,1.1-2.09,2.99-2.09.89,0,1.87.2,2.48.56l-.62,1.33c-.64-.36-1.27-.48-1.86-.48-.84,0-1.2.26-1.2.6,0,1.1,3.9.04,3.9,2.58,0,1.2-1.12,2.05-3.05,2.05-1.09,0-2.2-.3-2.79-.7Z"/><path class="cls-1" d="M81.34,23.74c-.38.28-.95.41-1.52.41-1.52,0-2.41-.78-2.41-2.31v-2.65h-1v-1.44h1v-1.57h1.87v1.57h1.61v1.44h-1.61v2.63c0,.55.3.85.8.85.28,0,.55-.08.75-.24l.5,1.32Z"/><path class="cls-1" d="M82.18,15.66c0-.59.47-1.04,1.16-1.04s1.16.43,1.16,1.01c0,.62-.47,1.08-1.16,1.08s-1.16-.46-1.16-1.04ZM82.4,17.6h1.87v6.45h-1.87v-6.45Z"/><path class="cls-1" d="M88.79,21.52l-.9.89v1.64h-1.87v-8.9h1.87v5.04l2.73-2.59h2.23l-2.69,2.73,2.93,3.72h-2.27l-2.04-2.53Z"/><path class="cls-1" d="M100.92,20.83c0,2.03-1.4,3.32-3.21,3.32-.8,0-1.46-.25-1.94-.78v3.01h-1.87v-8.78h1.79v.74c.47-.56,1.16-.84,2.03-.84,1.81,0,3.21,1.3,3.21,3.32ZM99.02,20.83c0-1.12-.71-1.79-1.64-1.79s-1.64.67-1.64,1.79.71,1.79,1.64,1.79,1.64-.67,1.64-1.79Z"/><path class="cls-1" d="M101.69,20.83c0-1.94,1.5-3.32,3.55-3.32s3.54,1.38,3.54,3.32-1.49,3.32-3.54,3.32-3.55-1.38-3.55-3.32ZM106.88,20.83c0-1.12-.71-1.79-1.64-1.79s-1.66.67-1.66,1.79.72,1.79,1.66,1.79,1.64-.67,1.64-1.79Z"/><path class="cls-1" d="M109.4,23.45l.62-1.34c.58.37,1.45.62,2.24.62.86,0,1.19-.23,1.19-.59,0-1.06-3.9.02-3.9-2.55,0-1.22,1.1-2.09,2.99-2.09.89,0,1.87.2,2.48.56l-.62,1.33c-.64-.36-1.27-.48-1.86-.48-.84,0-1.2.26-1.2.6,0,1.1,3.9.04,3.9,2.58,0,1.2-1.12,2.05-3.05,2.05-1.09,0-2.2-.3-2.79-.7Z"/><path class="cls-1" d="M122.68,21.36h-4.88c.18.8.86,1.3,1.85,1.3.68,0,1.18-.2,1.62-.62l1,1.08c-.6.68-1.5,1.04-2.66,1.04-2.23,0-3.68-1.4-3.68-3.32s1.48-3.32,3.44-3.32,3.36,1.27,3.36,3.35c0,.14-.02.35-.04.5ZM117.78,20.26h3.18c-.13-.82-.74-1.34-1.58-1.34s-1.46.52-1.6,1.34Z"/><path class="cls-1" d="M127.98,17.51v1.73c-.16-.01-.28-.02-.42-.02-1.03,0-1.71.56-1.71,1.8v3.05h-1.87v-6.45h1.79v.85c.46-.62,1.22-.95,2.22-.95Z"/><path class="cls-1" d="M51.42,54.71c0,1.87-1.4,3.03-3.65,3.03h-1.69v2.31h-1.94v-8.4h3.63c2.24,0,3.65,1.16,3.65,3.05ZM49.46,54.71c0-.92-.6-1.46-1.79-1.46h-1.58v2.91h1.58c1.19,0,1.79-.54,1.79-1.45Z"/><path class="cls-1" d="M52.79,51.16h1.87v8.9h-1.87v-8.9Z"/><path class="cls-1" d="M62.12,56.37v3.68h-1.75v-.8c-.35.59-1.02.9-1.97.9-1.51,0-2.41-.84-2.41-1.96s.8-1.93,2.77-1.93h1.49c0-.8-.48-1.27-1.49-1.27-.68,0-1.39.23-1.86.6l-.67-1.31c.71-.5,1.75-.78,2.78-.78,1.97,0,3.11.91,3.11,2.87ZM60.25,58.02v-.66h-1.28c-.88,0-1.15.32-1.15.76,0,.47.4.78,1.06.78.62,0,1.16-.29,1.38-.88Z"/><path class="cls-1" d="M63.19,59.45l.62-1.34c.58.37,1.45.62,2.24.62.86,0,1.19-.23,1.19-.59,0-1.06-3.9.02-3.9-2.55,0-1.22,1.1-2.09,2.99-2.09.89,0,1.87.2,2.48.56l-.62,1.33c-.64-.36-1.27-.48-1.86-.48-.84,0-1.2.26-1.2.6,0,1.1,3.9.04,3.9,2.58,0,1.2-1.12,2.05-3.05,2.05-1.09,0-2.2-.3-2.79-.7Z"/><path class="cls-1" d="M74.34,59.74c-.38.28-.95.41-1.52.41-1.52,0-2.41-.78-2.41-2.31v-2.65h-1v-1.44h1v-1.57h1.87v1.57h1.61v1.44h-1.61v2.63c0,.55.3.85.8.85.28,0,.55-.08.75-.24l.5,1.32Z"/><path class="cls-1" d="M75.18,51.66c0-.59.47-1.04,1.16-1.04s1.16.43,1.16,1.01c0,.62-.47,1.08-1.16,1.08s-1.16-.46-1.16-1.04ZM75.4,53.6h1.87v6.45h-1.87v-6.45Z"/><path class="cls-1" d="M81.79,57.52l-.9.89v1.64h-1.87v-8.9h1.87v5.04l2.73-2.59h2.23l-2.69,2.73,2.93,3.72h-2.27l-2.04-2.53Z"/><path class="cls-1" d="M88.99,53.47v.28h1.65v1.44h-1.61v4.87h-1.87v-4.87h-1v-1.44h1v-.29c0-1.45.89-2.4,2.5-2.4.53,0,1.08.11,1.43.35l-.49,1.36c-.2-.14-.47-.23-.75-.23-.55,0-.85.3-.85.94ZM93.45,51.16v8.9h-1.87v-8.9h1.87Z"/><path class="cls-1" d="M100.9,56.37v3.68h-1.75v-.8c-.35.59-1.02.9-1.97.9-1.51,0-2.41-.84-2.41-1.96s.8-1.93,2.77-1.93h1.49c0-.8-.48-1.27-1.49-1.27-.68,0-1.39.23-1.86.6l-.67-1.31c.71-.5,1.75-.78,2.78-.78,1.97,0,3.11.91,3.11,2.87ZM99.03,58.02v-.66h-1.28c-.88,0-1.15.32-1.15.76,0,.47.4.78,1.06.78.62,0,1.16-.29,1.38-.88Z"/><path class="cls-1" d="M101.97,59.45l.62-1.34c.58.37,1.45.62,2.24.62.86,0,1.19-.23,1.19-.59,0-1.06-3.9.02-3.9-2.55,0-1.22,1.1-2.09,2.99-2.09.89,0,1.87.2,2.48.56l-.62,1.33c-.64-.36-1.27-.48-1.86-.48-.84,0-1.2.26-1.2.6,0,1.1,3.9.04,3.9,2.58,0,1.2-1.12,2.05-3.05,2.05-1.09,0-2.2-.3-2.79-.7Z"/><path class="cls-1" d="M111.74,57.52l-.9.89v1.64h-1.87v-8.9h1.87v5.04l2.73-2.59h2.23l-2.69,2.73,2.93,3.72h-2.27l-2.04-2.53Z"/><path class="cls-1" d="M122.89,57.36h-4.88c.18.8.86,1.3,1.85,1.3.68,0,1.17-.2,1.62-.62l1,1.08c-.6.68-1.5,1.04-2.66,1.04-2.23,0-3.68-1.4-3.68-3.32s1.47-3.32,3.44-3.32,3.36,1.27,3.36,3.35c0,.14-.02.35-.04.5ZM117.99,56.26h3.18c-.13-.82-.74-1.34-1.58-1.34s-1.46.52-1.59,1.34Z"/><path class="cls-1" d="M128.19,53.51v1.73c-.16-.01-.28-.02-.42-.02-1.03,0-1.72.56-1.72,1.8v3.05h-1.87v-6.45h1.79v.85c.46-.62,1.22-.95,2.22-.95Z"/><path class="cls-1" d="M10.78,97.05v-5.04s-2.48,4.15-2.48,4.15h-.88l-2.46-4.04v4.93h-1.82v-8.4h1.61l3.14,5.22,3.09-5.22h1.59l.02,8.4h-1.82Z"/><path class="cls-1" d="M20.18,93.37v3.68h-1.75v-.8c-.35.59-1.02.9-1.97.9-1.51,0-2.41-.84-2.41-1.96s.8-1.93,2.77-1.93h1.49c0-.8-.48-1.27-1.49-1.27-.68,0-1.39.23-1.86.6l-.67-1.31c.71-.5,1.75-.78,2.78-.78,1.97,0,3.11.91,3.11,2.87ZM18.31,95.02v-.66h-1.28c-.88,0-1.15.32-1.15.76,0,.47.4.78,1.05.78.62,0,1.16-.29,1.38-.88Z"/><path class="cls-1" d="M28.52,88.16v8.9h-1.79v-.74c-.47.56-1.15.84-2.02.84-1.82,0-3.23-1.3-3.23-3.32s1.4-3.32,3.23-3.32c.79,0,1.46.25,1.93.78v-3.13h1.87ZM26.68,93.83c0-1.12-.72-1.79-1.64-1.79s-1.65.67-1.65,1.79.72,1.79,1.65,1.79,1.64-.67,1.64-1.79Z"/><path class="cls-1" d="M37.28,93.83c0,2.03-1.4,3.32-3.21,3.32-.86,0-1.56-.28-2.03-.84v.74h-1.79v-8.9h1.87v3.13c.48-.53,1.14-.78,1.94-.78,1.81,0,3.21,1.3,3.21,3.32ZM35.38,93.83c0-1.12-.71-1.79-1.64-1.79s-1.64.67-1.64,1.79.71,1.79,1.64,1.79,1.64-.67,1.64-1.79Z"/><path class="cls-1" d="M44.82,94.36h-4.88c.18.8.86,1.3,1.85,1.3.68,0,1.18-.2,1.62-.62l1,1.08c-.6.68-1.5,1.04-2.66,1.04-2.23,0-3.68-1.4-3.68-3.32s1.48-3.32,3.44-3.32,3.36,1.27,3.36,3.35c0,.14-.02.35-.04.5ZM39.91,93.26h3.18c-.13-.82-.74-1.34-1.58-1.34s-1.46.52-1.6,1.34Z"/><path class="cls-1" d="M52.7,93.36v3.69h-1.87v-3.41c0-1.04-.48-1.52-1.31-1.52-.9,0-1.55.55-1.55,1.74v3.19h-1.87v-8.9h1.87v3.12c.5-.5,1.22-.77,2.05-.77,1.52,0,2.67.89,2.67,2.85Z"/><path class="cls-1" d="M53.99,93.83c0-1.94,1.5-3.32,3.55-3.32s3.54,1.38,3.54,3.32-1.49,3.32-3.54,3.32-3.55-1.38-3.55-3.32ZM59.18,93.83c0-1.12-.71-1.79-1.64-1.79s-1.66.67-1.66,1.79.72,1.79,1.66,1.79,1.64-.67,1.64-1.79Z"/><path class="cls-1" d="M62.33,88.16h1.87v8.9h-1.87v-8.9Z"/><path class="cls-1" d="M72.51,88.16v8.9h-1.79v-.74c-.47.56-1.15.84-2.02.84-1.82,0-3.23-1.3-3.23-3.32s1.4-3.32,3.23-3.32c.79,0,1.46.25,1.93.78v-3.13h1.87ZM70.68,93.83c0-1.12-.72-1.79-1.64-1.79s-1.66.67-1.66,1.79.72,1.79,1.66,1.79,1.64-.67,1.64-1.79Z"/><path class="cls-1" d="M80.53,94.36h-4.88c.18.8.86,1.3,1.85,1.3.68,0,1.18-.2,1.62-.62l1,1.08c-.6.68-1.5,1.04-2.66,1.04-2.23,0-3.68-1.4-3.68-3.32s1.48-3.32,3.44-3.32,3.36,1.27,3.36,3.35c0,.14-.02.35-.04.5ZM75.62,93.26h3.18c-.13-.82-.74-1.34-1.58-1.34s-1.46.52-1.6,1.34Z"/><path class="cls-1" d="M85.82,90.51v1.73c-.16-.01-.28-.02-.42-.02-1.03,0-1.71.56-1.71,1.8v3.05h-1.87v-6.45h1.79v.85c.46-.62,1.22-.95,2.22-.95Z"/><path class="cls-1" d="M89.21,86.96h1.67l-3.96,11.3h-1.67l3.96-11.3Z"/><path class="cls-1" d="M98.24,93.83c0,2.03-1.4,3.32-3.21,3.32-.86,0-1.56-.28-2.03-.84v.74h-1.79v-8.9h1.87v3.13c.48-.53,1.14-.78,1.94-.78,1.81,0,3.21,1.3,3.21,3.32ZM96.34,93.83c0-1.12-.71-1.79-1.64-1.79s-1.64.67-1.64,1.79.71,1.79,1.64,1.79,1.64-.67,1.64-1.79Z"/><path class="cls-1" d="M105.78,94.36h-4.88c.18.8.86,1.3,1.85,1.3.68,0,1.18-.2,1.62-.62l1,1.08c-.6.68-1.5,1.04-2.66,1.04-2.23,0-3.68-1.4-3.68-3.32s1.48-3.32,3.44-3.32,3.36,1.27,3.36,3.35c0,.14-.02.35-.04.5ZM100.87,93.26h3.18c-.13-.82-.74-1.34-1.58-1.34s-1.46.52-1.6,1.34Z"/><path class="cls-1" d="M106.44,96.45l.62-1.34c.58.37,1.45.62,2.24.62.86,0,1.19-.23,1.19-.59,0-1.06-3.9.02-3.9-2.55,0-1.22,1.1-2.09,2.99-2.09.89,0,1.87.2,2.48.56l-.62,1.33c-.63-.36-1.27-.48-1.86-.48-.84,0-1.2.26-1.2.6,0,1.1,3.9.04,3.9,2.58,0,1.2-1.12,2.05-3.05,2.05-1.09,0-2.19-.3-2.79-.7Z"/><path class="cls-1" d="M117.6,96.74c-.38.28-.95.41-1.52.41-1.52,0-2.41-.78-2.41-2.31v-2.65h-1v-1.44h1v-1.57h1.87v1.57h1.61v1.44h-1.61v2.63c0,.55.3.85.8.85.28,0,.55-.08.75-.24l.5,1.32Z"/><path class="cls-1" d="M118.43,88.66c0-.59.47-1.04,1.16-1.04s1.16.43,1.16,1.01c0,.62-.47,1.08-1.16,1.08s-1.16-.46-1.16-1.04ZM118.65,90.6h1.87v6.45h-1.87v-6.45Z"/><path class="cls-1" d="M125.04,94.52l-.9.89v1.64h-1.87v-8.9h1.87v5.04l2.73-2.59h2.23l-2.69,2.73,2.93,3.72h-2.27l-2.04-2.53Z"/><path class="cls-1" d="M75.42,127.71c0,1.87-1.4,3.03-3.65,3.03h-1.69v2.31h-1.94v-8.4h3.63c2.24,0,3.65,1.16,3.65,3.05ZM73.46,127.71c0-.92-.6-1.46-1.79-1.46h-1.58v2.91h1.58c1.19,0,1.79-.54,1.79-1.45Z"/><path class="cls-1" d="M76.79,124.16h1.87v8.9h-1.87v-8.9Z"/><path class="cls-1" d="M86.12,129.37v3.68h-1.75v-.8c-.35.59-1.02.9-1.97.9-1.51,0-2.41-.84-2.41-1.96s.8-1.93,2.77-1.93h1.49c0-.8-.48-1.27-1.49-1.27-.68,0-1.39.23-1.86.6l-.67-1.31c.71-.5,1.75-.78,2.78-.78,1.97,0,3.11.91,3.11,2.87ZM84.25,131.02v-.66h-1.28c-.88,0-1.15.32-1.15.76,0,.47.4.78,1.06.78.62,0,1.16-.29,1.38-.88Z"/><path class="cls-1" d="M87.19,132.45l.62-1.34c.58.37,1.45.62,2.24.62.86,0,1.19-.23,1.19-.59,0-1.06-3.9.02-3.9-2.55,0-1.22,1.1-2.09,2.99-2.09.89,0,1.87.2,2.48.56l-.62,1.33c-.64-.36-1.27-.48-1.86-.48-.84,0-1.2.26-1.2.6,0,1.1,3.9.04,3.9,2.58,0,1.2-1.12,2.05-3.05,2.05-1.09,0-2.2-.3-2.79-.7Z"/><path class="cls-1" d="M98.34,132.74c-.38.28-.95.41-1.52.41-1.52,0-2.41-.78-2.41-2.31v-2.65h-1v-1.44h1v-1.57h1.87v1.57h1.61v1.44h-1.61v2.63c0,.55.3.85.8.85.28,0,.55-.08.75-.24l.5,1.32Z"/><path class="cls-1" d="M99.18,124.66c0-.59.47-1.04,1.16-1.04s1.16.43,1.16,1.01c0,.62-.47,1.08-1.16,1.08s-1.16-.46-1.16-1.04ZM99.4,126.6h1.87v6.45h-1.87v-6.45Z"/><path class="cls-1" d="M105.79,130.52l-.9.89v1.64h-1.87v-8.9h1.87v5.04l2.73-2.59h2.23l-2.69,2.73,2.93,3.72h-2.27l-2.04-2.53Z"/><path class="cls-1" d="M110.93,124.16h1.87v8.9h-1.87v-8.9Z"/><path class="cls-1" d="M120.26,129.37v3.68h-1.75v-.8c-.35.59-1.02.9-1.97.9-1.51,0-2.41-.84-2.41-1.96s.8-1.93,2.77-1.93h1.49c0-.8-.48-1.27-1.49-1.27-.68,0-1.39.23-1.86.6l-.67-1.31c.71-.5,1.75-.78,2.78-.78,1.97,0,3.11.91,3.11,2.87ZM115.85,124.5c0-.8.64-1.45,1.48-1.45s1.5.65,1.5,1.45-.65,1.45-1.5,1.45-1.48-.64-1.48-1.45ZM118.38,131.02v-.66h-1.28c-.88,0-1.15.32-1.15.76,0,.47.4.78,1.06.78.62,0,1.16-.29,1.38-.88ZM116.61,124.5c0,.42.31.73.72.73s.73-.31.73-.73-.31-.73-.73-.73c-.4,0-.72.31-.72.73Z"/><path class="cls-1" d="M128.68,126.6v5.37c0,2.4-1.3,3.5-3.62,3.5-1.22,0-2.41-.3-3.17-.89l.74-1.34c.55.44,1.45.73,2.28.73,1.32,0,1.9-.6,1.9-1.76v-.28c-.49.54-1.2.8-2.04.8-1.79,0-3.23-1.24-3.23-3.12s1.44-3.12,3.23-3.12c.9,0,1.64.3,2.13.92v-.83h1.78ZM126.83,129.62c0-.95-.71-1.58-1.69-1.58s-1.7.64-1.7,1.58.72,1.58,1.7,1.58,1.69-.64,1.69-1.58Z"/><path class="cls-1" d="M.14,160.66h1.94v8.4H.14v-8.4Z"/><path class="cls-1" d="M10.54,165.36v3.69h-1.87v-3.41c0-1.04-.48-1.52-1.31-1.52-.9,0-1.55.55-1.55,1.74v3.19h-1.87v-6.45h1.79v.76c.5-.55,1.26-.85,2.13-.85,1.52,0,2.67.89,2.67,2.85Z"/><path class="cls-1" d="M18.88,160.16v8.9h-1.79v-.74c-.47.56-1.15.84-2.01.84-1.82,0-3.23-1.3-3.23-3.32s1.4-3.32,3.23-3.32c.79,0,1.46.25,1.93.78v-3.13h1.87ZM17.05,165.83c0-1.12-.72-1.79-1.64-1.79s-1.66.67-1.66,1.79.72,1.79,1.66,1.79,1.64-.67,1.64-1.79Z"/><path class="cls-1" d="M27.12,162.6v6.45h-1.78v-.77c-.49.56-1.21.86-2,.86-1.62,0-2.76-.91-2.76-2.9v-3.65h1.87v3.37c0,1.08.48,1.56,1.31,1.56s1.49-.55,1.49-1.74v-3.19h1.87Z"/><path class="cls-1" d="M28.24,168.45l.62-1.34c.58.37,1.45.62,2.24.62.86,0,1.19-.23,1.19-.59,0-1.06-3.9.02-3.9-2.55,0-1.22,1.1-2.09,2.99-2.09.89,0,1.87.2,2.48.56l-.62,1.33c-.63-.36-1.27-.48-1.86-.48-.84,0-1.2.26-1.2.6,0,1.1,3.9.04,3.9,2.58,0,1.2-1.12,2.05-3.05,2.05-1.09,0-2.19-.3-2.79-.7Z"/><path class="cls-1" d="M39.39,168.74c-.38.28-.95.41-1.52.41-1.52,0-2.41-.78-2.41-2.31v-2.65h-1v-1.44h1v-1.57h1.87v1.57h1.61v1.44h-1.61v2.63c0,.55.3.85.8.85.28,0,.55-.08.76-.24l.5,1.32Z"/><path class="cls-1" d="M44.46,162.51v1.73c-.16-.01-.28-.02-.42-.02-1.03,0-1.71.56-1.71,1.8v3.05h-1.87v-6.45h1.79v.85c.46-.62,1.22-.95,2.22-.95Z"/><path class="cls-1" d="M45.35,160.66c0-.59.47-1.04,1.16-1.04s1.16.43,1.16,1.01c0,.62-.47,1.08-1.16,1.08s-1.16-.46-1.16-1.04ZM45.58,162.6h1.87v6.45h-1.87v-6.45Z"/><path class="cls-1" d="M55.47,166.36h-4.88c.18.8.86,1.3,1.85,1.3.68,0,1.17-.2,1.62-.62l1,1.08c-.6.68-1.5,1.04-2.66,1.04-2.23,0-3.68-1.4-3.68-3.32s1.47-3.32,3.44-3.32,3.36,1.27,3.36,3.35c0,.14-.02.35-.04.5ZM50.57,165.26h3.18c-.13-.82-.74-1.34-1.58-1.34s-1.46.52-1.59,1.34Z"/><path class="cls-1" d="M56.76,160.16h1.87v8.9h-1.87v-8.9Z"/><path class="cls-1" d="M70.05,166.36h-4.88c.18.8.86,1.3,1.85,1.3.68,0,1.17-.2,1.62-.62l1,1.08c-.6.68-1.5,1.04-2.66,1.04-2.23,0-3.68-1.4-3.68-3.32s1.47-3.32,3.44-3.32,3.36,1.27,3.36,3.35c0,.14-.02.35-.04.5ZM65.15,165.26h3.18c-.13-.82-.74-1.34-1.58-1.34s-1.46.52-1.59,1.34Z"/><path class="cls-1" d="M82.24,165.36v3.69h-1.87v-3.41c0-1.04-.47-1.52-1.22-1.52-.84,0-1.43.54-1.43,1.69v3.24h-1.87v-3.41c0-1.04-.44-1.52-1.22-1.52-.83,0-1.42.54-1.42,1.69v3.24h-1.87v-6.45h1.79v.74c.48-.55,1.2-.84,2.03-.84.9,0,1.67.35,2.12,1.06.52-.66,1.36-1.06,2.33-1.06,1.54,0,2.64.89,2.64,2.85Z"/><path class="cls-1" d="M90.96,165.83c0,2.03-1.4,3.32-3.21,3.32-.86,0-1.56-.28-2.03-.84v.74h-1.79v-8.9h1.87v3.13c.48-.53,1.14-.78,1.94-.78,1.81,0,3.21,1.3,3.21,3.32ZM89.06,165.83c0-1.12-.71-1.79-1.64-1.79s-1.64.67-1.64,1.79.71,1.79,1.64,1.79,1.64-.67,1.64-1.79Z"/><path class="cls-1" d="M97.81,165.37v3.68h-1.75v-.8c-.35.59-1.02.9-1.97.9-1.51,0-2.41-.84-2.41-1.96s.8-1.93,2.77-1.93h1.49c0-.8-.48-1.27-1.49-1.27-.68,0-1.39.23-1.86.6l-.67-1.31c.71-.5,1.75-.78,2.78-.78,1.97,0,3.11.91,3.11,2.87ZM95.94,167.02v-.66h-1.28c-.88,0-1.15.32-1.15.76,0,.47.4.78,1.05.78.62,0,1.16-.29,1.38-.88Z"/><path class="cls-1" d="M99.5,160.16h1.87v8.9h-1.87v-8.9Z"/><path class="cls-1" d="M103.11,160.16h1.87v8.9h-1.87v-8.9Z"/><path class="cls-1" d="M112.44,165.37v3.68h-1.75v-.8c-.35.59-1.02.9-1.97.9-1.51,0-2.41-.84-2.41-1.96s.8-1.93,2.77-1.93h1.49c0-.8-.48-1.27-1.49-1.27-.68,0-1.39.23-1.86.6l-.67-1.31c.71-.5,1.75-.78,2.78-.78,1.97,0,3.11.91,3.11,2.87ZM110.56,167.02v-.66h-1.28c-.88,0-1.15.32-1.15.76,0,.47.4.78,1.06.78.62,0,1.16-.29,1.38-.88Z"/><path class="cls-1" d="M120.86,162.6v5.37c0,2.4-1.3,3.5-3.62,3.5-1.22,0-2.41-.3-3.17-.89l.74-1.34c.55.44,1.45.73,2.28.73,1.32,0,1.9-.6,1.9-1.76v-.28c-.49.54-1.2.8-2.04.8-1.79,0-3.23-1.24-3.23-3.12s1.44-3.12,3.23-3.12c.9,0,1.64.3,2.13.92v-.83h1.78ZM119.01,165.62c0-.95-.71-1.58-1.69-1.58s-1.7.64-1.7,1.58.72,1.58,1.7,1.58,1.69-.64,1.69-1.58Z"/><path class="cls-1" d="M128.89,166.36h-4.88c.18.8.86,1.3,1.85,1.3.68,0,1.18-.2,1.62-.62l1,1.08c-.6.68-1.5,1.04-2.66,1.04-2.23,0-3.68-1.4-3.68-3.32s1.48-3.32,3.44-3.32,3.36,1.27,3.36,3.35c0,.14-.02.35-.04.5ZM123.98,165.26h3.18c-.13-.82-.74-1.34-1.58-1.34s-1.46.52-1.6,1.34Z"/><path class="cls-1" d="M132.08,206.11c0-2.77,1.54-4.34,3.6-4.34s3.6,1.57,3.6,4.34-1.52,4.34-3.6,4.34-3.6-1.57-3.6-4.34ZM137.33,206.11c0-1.91-.67-2.7-1.64-2.7s-1.63.79-1.63,2.7.67,2.7,1.63,2.7,1.64-.79,1.64-2.7Z"/><path class="cls-1" d="M140.09,204.13c0-1.42.86-2.31,2.09-2.31s2.08.89,2.08,2.31-.85,2.31-2.08,2.31-2.09-.9-2.09-2.31ZM143.05,204.13c0-.9-.35-1.33-.88-1.33s-.88.44-.88,1.33.36,1.33.88,1.33.88-.43.88-1.33ZM147.18,201.91h1.43l-5.73,8.4h-1.43l5.73-8.4ZM145.8,208.08c0-1.42.86-2.31,2.07-2.31s2.09.9,2.09,2.31-.86,2.31-2.09,2.31-2.07-.9-2.07-2.31ZM148.75,208.08c0-.89-.35-1.33-.88-1.33s-.88.43-.88,1.33.36,1.33.88,1.33.88-.44.88-1.33Z"/><path class="cls-1" d="M253.43,207.66c0,1.49-1.09,2.78-3.49,2.78-1.16,0-2.39-.32-3.2-.9l.77-1.49c.63.48,1.51.76,2.39.76.97,0,1.57-.41,1.57-1.09s-.43-1.09-1.95-1.09h-2.15l.43-4.73h5.12v1.56h-3.5l-.13,1.59h.68c2.48,0,3.47,1.12,3.47,2.6Z"/><path class="cls-1" d="M253.96,204.13c0-1.42.86-2.31,2.09-2.31s2.07.89,2.07,2.31-.85,2.31-2.07,2.31-2.09-.9-2.09-2.31ZM256.92,204.13c0-.9-.35-1.33-.88-1.33s-.88.44-.88,1.33.36,1.33.88,1.33.88-.43.88-1.33ZM261.05,201.91h1.43l-5.73,8.4h-1.43l5.73-8.4ZM259.67,208.08c0-1.42.86-2.31,2.08-2.31s2.09.9,2.09,2.31-.86,2.31-2.09,2.31-2.08-.9-2.08-2.31ZM262.62,208.08c0-.89-.35-1.33-.88-1.33s-.88.43-.88,1.33.36,1.33.88,1.33.88-.44.88-1.33Z"/><path class="cls-1" d="M364.32,201.91v8.4h-1.94v-6.84h-1.68v-1.56h3.62Z"/><path class="cls-1" d="M365.79,206.11c0-2.77,1.54-4.34,3.6-4.34s3.6,1.57,3.6,4.34-1.52,4.34-3.6,4.34-3.6-1.57-3.6-4.34ZM371.03,206.11c0-1.91-.67-2.7-1.64-2.7s-1.63.79-1.63,2.7.67,2.7,1.63,2.7,1.64-.79,1.64-2.7Z"/><path class="cls-1" d="M373.79,204.13c0-1.42.86-2.31,2.09-2.31s2.07.89,2.07,2.31-.85,2.31-2.07,2.31-2.09-.9-2.09-2.31ZM376.75,204.13c0-.9-.35-1.33-.88-1.33s-.88.44-.88,1.33.36,1.33.88,1.33.88-.43.88-1.33ZM380.88,201.91h1.43l-5.73,8.4h-1.43l5.73-8.4ZM379.5,208.08c0-1.42.86-2.31,2.08-2.31s2.09.9,2.09,2.31-.86,2.31-2.09,2.31-2.08-.9-2.08-2.31ZM382.45,208.08c0-.89-.35-1.33-.88-1.33s-.88.43-.88,1.33.36,1.33.88,1.33.88-.44.88-1.33Z"/><path class="cls-1" d="M481.32,201.91v8.4h-1.94v-6.84h-1.68v-1.56h3.62Z"/><path class="cls-1" d="M489.13,207.66c0,1.49-1.09,2.78-3.49,2.78-1.16,0-2.39-.32-3.2-.9l.77-1.49c.64.48,1.51.76,2.39.76.97,0,1.57-.41,1.57-1.09s-.43-1.09-1.96-1.09h-2.15l.43-4.73h5.12v1.56h-3.5l-.13,1.59h.68c2.48,0,3.47,1.12,3.47,2.6Z"/><path class="cls-1" d="M489.66,204.13c0-1.42.86-2.31,2.09-2.31s2.08.89,2.08,2.31-.85,2.31-2.08,2.31-2.09-.9-2.09-2.31ZM492.63,204.13c0-.9-.35-1.33-.88-1.33s-.88.44-.88,1.33.36,1.33.88,1.33.88-.43.88-1.33ZM496.75,201.91h1.43l-5.73,8.4h-1.43l5.73-8.4ZM495.37,208.08c0-1.42.86-2.31,2.07-2.31s2.09.9,2.09,2.31-.86,2.31-2.09,2.31-2.07-.9-2.07-2.31ZM498.32,208.08c0-.89-.35-1.33-.88-1.33s-.88.43-.88,1.33.36,1.33.88,1.33.88-.44.88-1.33Z"/><rect class="cls-1" x="137" y="11" width="1" height="181"/><rect class="cls-1" x="255" y="77" width="1" height="112"/><rect class="cls-1" x="370" y="13" width="1" height="176"/><rect class="cls-1" x="485" y="5" width="1" height="183"/><rect class="cls-1" x="312.5" y="16.5" width="1" height="352" transform="translate(505.5 -120.5) rotate(90)"/></svg>