<svg width="75" height="68" viewBox="0 0 75 68" fill="none" xmlns="http://www.w3.org/2000/svg">
<path d="M1.589 40.9777C2.54242 44.0718 -1.50961 60.4943 0.635586 63.1123C2.78078 65.7304 1.82736 67.8725 4.44926 67.6345C7.07116 67.3964 8.73965 66.4444 9.45471 66.4444C9.5572 66.4444 9.60487 66.3754 9.61202 66.2564L8.26294 63.1123C8.26294 63.1123 7.30952 64.3024 6.3561 64.0644C5.40268 63.8263 6.83281 60.0182 6.83281 60.0182L5.64103 56.4481L5.87939 52.402L8.978 47.6419L11.1232 52.878L10.8848 59.3042L8.26294 63.1123C8.26294 63.1123 9.65969 65.5567 9.61202 66.2564L9.69306 66.4444L11.1232 66.2064L13.9834 61.2083L16.1286 55.0201L14.9369 49.3079L11.1232 46.6899L6.4133 44.1646C5.20246 43.3744 4.52315 41.9845 4.63994 40.5445L4.71145 31.417C2.06333 35.4821 0.771448 38.3168 1.589 40.9753V40.9777Z" fill="#81B47E"/>
<path d="M8.59626 44.1266C8.10525 43.7577 7.68097 43.4031 7.32344 43.0746C6.96591 42.7462 6.66558 42.4415 6.42723 42.1654C6.18649 41.887 5.99342 41.6299 5.84564 41.3943C5.69786 41.1587 5.58822 40.9373 5.5191 40.7303C5.44998 40.5232 5.40707 40.3209 5.39515 40.1233C5.28313 38.4763 5.22831 37.6552 5.11628 36.0082C5.10198 35.8083 5.11866 35.625 5.16633 35.4536C5.214 35.2823 5.3022 35.1204 5.43329 34.9681C5.56439 34.8158 5.74315 34.6682 5.96959 34.5254C6.19603 34.3826 6.48205 34.2422 6.82528 34.1065C7.1709 33.9709 7.57848 33.8352 8.05042 33.7067C8.52237 33.5782 9.07058 33.452 9.69269 33.3378C10.3172 33.2235 10.8678 33.1497 11.3469 33.1236C11.826 33.0974 12.2431 33.1164 12.5982 33.1854C12.9534 33.2521 13.2561 33.3687 13.5016 33.5353C13.7471 33.7019 13.9497 33.909 14.1094 34.1613C14.2691 34.4112 14.3883 34.7039 14.4693 35.0348C14.5504 35.3656 14.6028 35.7297 14.629 36.1224C14.6624 36.6484 14.6791 36.9126 14.7124 37.441C14.7291 37.7099 14.691 37.9146 14.5933 38.0503C14.4979 38.186 14.3478 38.2455 14.1452 38.2336C12.9319 38.1503 12.3289 38.0979 11.13 37.9694C10.987 37.9551 10.8725 37.898 10.7915 37.8051C10.7105 37.7123 10.6652 37.5862 10.658 37.4267C10.6342 36.9912 10.6223 36.7746 10.6008 36.339C10.5961 36.2557 10.5794 36.1891 10.5508 36.1391C10.5222 36.0891 10.4769 36.0487 10.4173 36.0225C10.3577 35.9939 10.279 35.9773 10.1837 35.9677C10.0884 35.9606 9.97156 35.9558 9.83332 35.9558C9.69507 35.9558 9.58066 35.9606 9.48532 35.9701C9.39236 35.9796 9.31609 35.9963 9.25888 36.0201C9.20168 36.0463 9.16116 36.082 9.13732 36.1272C9.11349 36.1724 9.10157 36.2319 9.10634 36.3081C9.22313 38.5763 9.28272 39.7116 9.39951 41.9798C9.40428 42.0559 9.42096 42.1202 9.44957 42.1797C9.47817 42.2368 9.52346 42.2916 9.58543 42.3439C9.64502 42.3963 9.72606 42.4487 9.82378 42.501C9.92151 42.5534 10.0407 42.6129 10.1813 42.6748C10.3219 42.7366 10.4435 42.7842 10.5412 42.8152C10.639 42.8461 10.7176 42.8628 10.7772 42.8604C10.8368 42.8604 10.8773 42.839 10.9035 42.7985C10.9274 42.7604 10.9393 42.6986 10.9345 42.6153C10.9107 42.1797 10.8988 41.9631 10.8773 41.5276C10.8678 41.3633 10.9011 41.2539 10.975 41.1944C11.0489 41.1349 11.1586 41.1253 11.304 41.1682C12.522 41.5252 13.1393 41.687 14.3787 41.9774C14.5861 42.025 14.7482 42.1297 14.865 42.2963C14.9818 42.4606 15.0485 42.6819 15.0652 42.9532C15.0986 43.4792 15.1153 43.7434 15.1486 44.2694C15.1748 44.6645 15.1653 45.0191 15.1224 45.3309C15.0795 45.6427 14.9913 45.9069 14.8554 46.1116C14.7196 46.3186 14.5313 46.4686 14.2905 46.5567C14.0498 46.6447 13.7447 46.6638 13.3753 46.6066C13.0058 46.5495 12.5672 46.4162 12.0643 46.202C11.559 45.9878 10.975 45.6832 10.3196 45.2881C9.66647 44.893 9.09442 44.5003 8.60341 44.1314L8.59626 44.1266Z" fill="#81B47E"/>
<path d="M20.226 32.6445C20.195 32.2898 20.226 32.0114 20.3166 31.8043C20.4095 31.5996 20.5573 31.4735 20.7623 31.4306C21.842 31.2069 22.3831 31.0927 23.4629 30.8594C23.6726 30.8142 23.8418 30.8808 23.9706 31.0593C24.0993 31.2378 24.1851 31.5235 24.228 31.9138C24.8763 37.8925 25.5246 43.8736 26.1729 49.8523C26.2159 50.2403 26.1849 50.5235 26.0848 50.7068C25.9846 50.8877 25.813 50.9567 25.5723 50.9091C24.3328 50.6687 23.7155 50.5259 22.4856 50.1998C22.252 50.1379 22.0637 49.9951 21.9255 49.7762C21.7848 49.5572 21.7014 49.2716 21.6704 48.9217C21.4583 46.5417 21.3534 45.3516 21.1413 42.9692C21.1246 42.7669 21.0769 42.6122 21.003 42.5051C20.9291 42.398 20.829 42.3361 20.7027 42.3242C20.4334 42.298 20.2999 42.2837 20.0305 42.2528C19.9066 42.2385 19.816 42.2766 19.7564 42.367C19.6969 42.4575 19.6754 42.5979 19.6921 42.7931C19.8804 45.0803 19.9757 46.2227 20.164 48.51C20.1926 48.8479 20.1521 49.086 20.0472 49.224C19.94 49.362 19.7707 49.393 19.5372 49.3144C18.3215 48.9051 17.7185 48.6813 16.5244 48.1887C16.2979 48.0958 16.1191 47.9435 15.9881 47.7388C15.8593 47.5342 15.7855 47.289 15.7664 46.9986C15.4732 42.5027 15.18 38.0068 14.8845 33.5108C14.8654 33.2157 14.9059 32.9848 15.0036 32.8134C15.1014 32.6421 15.2539 32.5326 15.4589 32.4945C16.5387 32.2875 17.0773 32.1804 18.1571 31.9638C18.3644 31.9233 18.5289 31.978 18.6505 32.1304C18.772 32.2851 18.8483 32.5326 18.8745 32.8753C19.0318 34.7984 19.1129 35.76 19.2702 37.6831C19.2869 37.8735 19.3298 38.0163 19.4037 38.1162C19.4776 38.2162 19.5753 38.2662 19.6945 38.2662C19.9567 38.2662 20.0854 38.2662 20.3476 38.2614C20.4715 38.2614 20.5597 38.2067 20.6121 38.102C20.667 37.9972 20.6836 37.8449 20.667 37.6474C20.4882 35.6457 20.4 34.6437 20.2236 32.6421L20.226 32.6445Z" fill="#81B47E"/>
<path d="M27.3434 51.2213C27.1932 51.1975 27.0502 51.1261 26.9215 51.0071C26.7904 50.8881 26.6808 50.7429 26.5926 50.5668C26.5044 50.3906 26.4377 50.1955 26.3971 49.9789C26.3542 49.7623 26.3471 49.541 26.3709 49.3125C26.6212 43.329 26.7713 37.3479 26.8405 31.3596C26.8548 31.1335 26.881 30.936 26.9191 30.7718C26.9549 30.6075 27.0026 30.4695 27.0598 30.3576C27.117 30.2458 27.1861 30.1601 27.2624 30.0982C27.341 30.0363 27.4268 29.9935 27.5245 29.9721C28.8713 29.6722 29.5458 29.5222 30.8925 29.2176C30.9926 29.1962 31.088 29.1985 31.1785 29.2247C31.2691 29.2509 31.3573 29.308 31.4431 29.3937C31.5289 29.4794 31.6099 29.596 31.691 29.7436C31.7696 29.8911 31.8483 30.0768 31.9246 30.3005C33.7289 36.7434 35.5809 43.1719 37.483 49.5862C37.5736 49.848 37.6308 50.1027 37.6522 50.3454C37.6737 50.5882 37.6642 50.8072 37.6236 51.0023C37.5831 51.1951 37.5116 51.3522 37.4115 51.4736C37.3114 51.5926 37.1874 51.6592 37.0373 51.6687C35.8908 51.7425 35.314 51.7592 34.158 51.7568C33.9863 51.7568 33.8266 51.664 33.6789 51.4807C33.5311 51.2975 33.4214 51.0547 33.3476 50.7524C33.2212 50.0313 33.1593 49.6719 33.0329 48.9507C32.9805 48.7841 32.9114 48.6484 32.8279 48.5509C32.7445 48.4509 32.6516 48.4033 32.5538 48.4033C31.8483 48.4081 31.4932 48.4033 30.7876 48.3819C30.6947 48.3795 30.6184 48.4223 30.5588 48.5128C30.5016 48.6032 30.4658 48.7246 30.4587 48.8769C30.5183 49.5981 30.5493 49.9575 30.6065 50.6763C30.6065 50.9571 30.5612 51.1784 30.4635 51.3403C30.3657 51.5021 30.2299 51.5735 30.0583 51.5569C28.9737 51.4545 28.4327 51.3879 27.3482 51.2189L27.3434 51.2213ZM31.2715 43.4789C31.3144 43.4789 31.3525 43.4599 31.3835 43.4266C31.4145 43.3933 31.4383 43.3504 31.4526 43.2981C31.4669 43.2457 31.4741 43.1814 31.4717 43.11C31.4717 43.0386 31.4574 42.9648 31.4383 42.8887C31.0927 41.1489 30.9211 40.2825 30.5826 38.5522C30.5517 38.4356 30.5159 38.3499 30.4778 38.2928C30.4396 38.2357 30.4015 38.2119 30.3657 38.2142C30.33 38.219 30.3014 38.2523 30.2775 38.3142C30.2537 38.3761 30.2418 38.4665 30.2394 38.5879C30.3538 40.3254 30.4086 41.1917 30.5159 42.9149C30.5159 42.9958 30.5207 43.0696 30.5374 43.141C30.554 43.21 30.5779 43.2719 30.6065 43.3266C30.6351 43.379 30.6684 43.4218 30.709 43.4528C30.7495 43.4837 30.7924 43.498 30.8377 43.498C31.0141 43.4908 31.1023 43.4861 31.2763 43.4789H31.2715Z" fill="#81B47E"/>
<path d="M38.8534 51.511C38.7462 51.5229 38.6437 51.4968 38.5412 51.4373C38.4411 51.3778 38.3481 51.2897 38.2647 51.1731C38.1813 51.0588 38.1074 50.916 38.043 50.7447C37.9787 50.5757 37.931 50.39 37.9 50.1925C36.8155 43.395 35.731 36.5999 34.6441 29.8025C34.6107 29.6002 34.5988 29.4098 34.6035 29.2313C34.6083 29.0528 34.6298 28.898 34.6679 28.7624C34.706 28.6291 34.7585 28.5172 34.8276 28.4292C34.8967 28.3411 34.9778 28.2864 35.0731 28.2649C36.0623 28.0388 36.5581 27.9246 37.5472 27.6985C37.6831 27.6676 37.8166 27.7128 37.9477 27.8342C38.0788 27.9555 38.1932 28.134 38.2933 28.3721C39.3134 30.6617 40.3479 32.9418 41.4038 35.2147C41.4515 35.3076 41.4968 35.3671 41.5397 35.3909C41.585 35.4147 41.6207 35.4099 41.6517 35.3766C41.6827 35.3433 41.7018 35.2861 41.7089 35.2028C41.7161 35.1195 41.7089 35.0172 41.6874 34.8911C41.2036 32.3372 40.9605 31.0615 40.4766 28.5077C40.4385 28.303 40.4194 28.1102 40.4194 27.9317C40.4194 27.7532 40.4361 27.5914 40.4695 27.451C40.5028 27.3105 40.5553 27.1963 40.622 27.1082C40.6887 27.0202 40.7698 26.9654 40.8651 26.944C41.8448 26.7227 42.3334 26.6108 43.313 26.3895C43.4084 26.368 43.5037 26.3823 43.5967 26.4347C43.6896 26.4847 43.7778 26.5656 43.8589 26.6727C43.9399 26.7798 44.0138 26.9155 44.0805 27.0773C44.1473 27.2391 44.1997 27.4224 44.2402 27.6223C45.5822 34.3698 46.9241 41.1173 48.266 47.8648C48.3042 48.06 48.3256 48.2527 48.3256 48.436C48.3256 48.6193 48.3089 48.7835 48.2732 48.9263C48.2374 49.0691 48.185 49.1905 48.1135 49.2881C48.0444 49.388 47.9586 49.4547 47.8585 49.4904C46.8097 49.8593 46.2758 50.0235 45.2008 50.3163C45.0578 50.3543 44.9172 50.321 44.7765 50.2139C44.6359 50.1068 44.5143 49.9402 44.4095 49.7141C43.3369 47.6458 42.2857 45.5656 41.2489 43.4783C41.1941 43.3593 41.1416 43.2832 41.0892 43.2451C41.0367 43.207 40.9962 43.207 40.9605 43.2403C40.9271 43.2736 40.9056 43.3403 40.8985 43.4403C40.8913 43.5402 40.9009 43.6687 40.9319 43.8234C41.3728 46.1107 41.5921 47.2555 42.0331 49.5427C42.0736 49.7522 42.0903 49.9473 42.0879 50.1306C42.0855 50.3139 42.0617 50.4757 42.0188 50.6161C41.9759 50.7589 41.9163 50.8756 41.8424 50.9636C41.7661 51.0517 41.6755 51.1064 41.5683 51.1255C40.4909 51.3135 39.9475 51.3897 38.8534 51.5087V51.511Z" fill="#81B47E"/>
<path d="M55.2742 30.5643C55.3386 30.857 55.3338 31.0998 55.2647 31.2974C55.1956 31.4949 55.0597 31.6353 54.8571 31.7139C53.7297 32.1566 53.16 32.3708 52.0112 32.7778C51.8705 32.8277 51.749 32.792 51.6417 32.6683C51.5345 32.5469 51.451 32.3422 51.3914 32.0566C51.227 31.2855 51.1436 30.8999 50.9791 30.1287C50.9481 29.9812 50.91 29.8669 50.8623 29.786C50.8146 29.7051 50.7598 29.6456 50.6907 29.6123C50.6216 29.5789 50.5381 29.567 50.4404 29.5789C50.3427 29.5908 50.2259 29.6147 50.0876 29.6551C49.9518 29.6932 49.8374 29.736 49.7468 29.7789C49.6562 29.8217 49.5871 29.8765 49.5418 29.9455C49.4941 30.0145 49.4679 30.0978 49.4608 30.1954C49.4536 30.2953 49.4655 30.4191 49.4965 30.5691C50.2974 34.3557 51.0983 38.1424 51.8968 41.9291C51.9277 42.0791 51.9683 42.1933 52.0136 42.2742C52.0588 42.3528 52.1184 42.4027 52.1876 42.4242C52.2591 42.4456 52.3473 42.4408 52.4497 42.4123C52.5522 42.3837 52.6786 42.3337 52.824 42.2623C52.9694 42.1909 53.0885 42.1219 53.1815 42.0553C53.2744 41.9886 53.346 41.9148 53.3984 41.8363C53.4484 41.7577 53.4771 41.6673 53.4818 41.565C53.4866 41.4626 53.4747 41.3389 53.4437 41.1913C53.2315 40.2012 53.1243 39.7061 52.9122 38.7184C52.8907 38.6137 52.8597 38.5399 52.8216 38.4947C52.7834 38.4518 52.7381 38.4399 52.6857 38.4637C52.5785 38.5113 52.526 38.5351 52.4188 38.5827C52.2924 38.6399 52.1828 38.6161 52.0946 38.5161C52.0064 38.4161 51.9349 38.2376 51.8801 37.9806C51.7013 37.1452 51.6131 36.7287 51.4343 35.8933C51.3557 35.522 51.3438 35.2221 51.3986 34.9936C51.4534 34.7651 51.5726 34.6175 51.7537 34.5509C53.1386 34.0321 53.8203 33.756 55.1694 33.1752C55.3696 33.0895 55.5436 33.1229 55.689 33.2728C55.8344 33.4251 55.9488 33.6893 56.0322 34.0701C56.4946 36.1932 56.7258 37.2547 57.1882 39.3801C57.3026 39.9013 57.3789 40.3987 57.4218 40.8819C57.4647 41.3627 57.46 41.8291 57.4099 42.2837C57.3598 42.736 57.2597 43.181 57.1048 43.6142C56.9523 44.0474 56.7354 44.4734 56.4517 44.8875C56.1681 45.2993 55.8129 45.7063 55.3815 46.0942C54.9501 46.4822 54.4305 46.8582 53.8179 47.2057C53.2077 47.5508 52.65 47.7865 52.1494 47.9174C51.6489 48.0483 51.1984 48.0863 50.7979 48.0364C50.3975 47.9864 50.0447 47.8483 49.7396 47.6294C49.4346 47.4104 49.1676 47.12 48.9364 46.7606C48.7076 46.4013 48.5097 45.9752 48.3453 45.4825C48.1808 44.9899 48.0378 44.4425 47.9186 43.8403C47.0868 39.6918 46.2573 35.541 45.4254 31.3926C45.3039 30.7904 45.2228 30.2239 45.1799 29.6956C45.137 29.1672 45.1442 28.6769 45.2014 28.2271C45.261 27.7772 45.373 27.3655 45.5446 26.9942C45.7138 26.6229 45.9546 26.2921 46.2621 26.0017C46.5695 25.7137 46.9533 25.4638 47.4085 25.2544C47.8638 25.0449 48.4072 24.8736 49.0341 24.7427C49.6634 24.6094 50.2307 24.5475 50.7312 24.5499C51.2317 24.5499 51.6799 24.6118 52.0731 24.7284C52.4664 24.845 52.8097 25.0187 53.1076 25.2472C53.4032 25.4757 53.6606 25.7542 53.8799 26.0826C54.0992 26.4087 54.2875 26.7871 54.4424 27.2155C54.5973 27.644 54.7308 28.1176 54.8452 28.6364C55.0121 29.4076 55.0979 29.7932 55.2647 30.5643H55.2742Z" fill="#81B47E"/>
<path d="M59.1163 43.1531C58.9351 43.3031 58.7754 43.3197 58.6348 43.1983C58.4965 43.0793 58.3845 42.8318 58.3035 42.4605C57.0497 36.6984 55.796 30.9362 54.5422 25.1765C54.4612 24.8004 54.4517 24.5029 54.5208 24.284C54.5875 24.0674 54.7258 23.9388 54.9331 23.8984C57.1308 23.4533 59.3356 23.032 61.5427 22.6417C61.7525 22.6036 61.9265 22.6512 62.0623 22.775C62.1982 22.9011 62.2912 23.1011 62.3436 23.3819C62.4556 23.9936 62.5128 24.2982 62.6249 24.9099C62.6773 25.1884 62.663 25.4169 62.5891 25.6001C62.5152 25.7834 62.3793 25.9143 62.1815 25.9857C61.147 26.3641 60.6274 26.5498 59.5787 26.9163C59.4261 26.9687 59.3236 27.0758 59.2712 27.2329C59.2188 27.3923 59.2188 27.5994 59.2712 27.8541C59.3808 28.3729 59.4357 28.6323 59.5429 29.1512C59.5954 29.4035 59.6764 29.5772 59.7813 29.6748C59.8862 29.77 60.0125 29.7843 60.1579 29.7129C61.066 29.2773 61.5141 29.0536 62.4008 28.5966C62.5891 28.499 62.7464 28.499 62.8727 28.5966C62.9967 28.6918 63.0849 28.8799 63.1397 29.1655C63.2374 29.6843 63.2851 29.9414 63.3828 30.4602C63.4353 30.7458 63.4305 30.9934 63.3685 31.2099C63.3065 31.4265 63.1874 31.6027 63.0086 31.7312C62.1744 32.3381 61.7501 32.6332 60.8849 33.1997C60.7466 33.2901 60.6513 33.4258 60.606 33.6043C60.5583 33.7828 60.5631 34.0018 60.6179 34.2564C60.7585 34.9228 60.8277 35.2561 60.9683 35.9201C61.0207 36.1724 61.097 36.3366 61.1971 36.4128C61.2948 36.4889 61.4116 36.4699 61.5451 36.3604C62.5128 35.5559 62.9824 35.137 63.8929 34.254C64.0574 34.0946 64.1956 34.0446 64.3076 34.1041C64.4197 34.1636 64.4983 34.3302 64.5508 34.6087C64.6628 35.2156 64.7176 35.5179 64.8296 36.1248C64.8797 36.4009 64.8797 36.6603 64.8296 36.9078C64.7796 37.1553 64.6795 37.3815 64.5269 37.5766C62.7965 39.6282 61.1232 41.3609 59.1234 43.1507L59.1163 43.1531Z" fill="#81B47E"/>
<path d="M7.96075 15.0043C8.29445 14.3593 8.61861 13.8524 8.92132 13.4739C9.22403 13.0979 9.51005 12.8385 9.77701 12.6933C10.044 12.5481 10.2895 12.51 10.5135 12.5767C10.7352 12.6433 10.9449 12.8004 11.1332 13.0479C11.3215 13.2931 11.4979 13.6239 11.6552 14.0356C11.8126 14.445 11.9603 14.9282 12.101 15.478C12.4895 17.0179 12.6849 17.789 13.0735 19.3313C13.2117 19.8811 13.3166 20.3999 13.3833 20.8855C13.4501 21.371 13.4739 21.8303 13.4501 22.2588C13.4262 22.6872 13.3547 23.0894 13.2308 23.4607C13.1092 23.8344 12.9257 24.1842 12.6849 24.5174C12.4442 24.8483 12.1415 25.1601 11.7792 25.4599C11.4169 25.7598 10.9879 26.0502 10.4968 26.3453C10.3848 26.412 10.3276 26.4477 10.2156 26.5143C10.125 26.5691 10.0654 26.6571 10.0368 26.7761C10.0082 26.8951 10.0106 27.0427 10.0487 27.2164C10.4039 28.8658 10.5803 29.6893 10.933 31.3387C10.9998 31.6529 11.0022 31.9052 10.9354 32.0932C10.8687 32.2788 10.7376 32.3907 10.5397 32.4288C9.51482 32.6287 8.99997 32.7263 7.97267 32.9143C7.77722 32.95 7.6199 32.9119 7.50072 32.8025C7.38155 32.6953 7.31004 32.524 7.28144 32.2836C6.82856 28.5731 6.37569 24.8626 5.92282 21.152C5.89421 20.9093 5.89183 20.6594 5.91567 20.3999C5.9395 20.1405 5.98717 19.8811 6.06583 19.6288C6.68317 17.6557 7.0693 16.7322 7.96313 15.0091L7.96075 15.0043ZM9.286 18.8315C9.26217 18.7291 9.23595 18.6577 9.20496 18.6125C9.17397 18.5697 9.1406 18.5482 9.10008 18.553C9.06195 18.5578 9.01904 18.5816 8.97137 18.6292C8.9237 18.6768 8.87126 18.7386 8.81167 18.8172C8.70441 18.9624 8.65198 19.0362 8.5471 19.1837C8.4899 19.2646 8.45653 19.3622 8.44222 19.4765C8.42792 19.5907 8.43507 19.7168 8.46606 19.8549C8.69965 20.945 8.81644 21.49 9.05241 22.5824C9.08102 22.7205 9.12154 22.8086 9.17159 22.849C9.22165 22.8895 9.27885 22.8776 9.34321 22.8157C9.46238 22.7015 9.52197 22.6443 9.64353 22.5301C9.70789 22.4682 9.76509 22.4063 9.81276 22.3444C9.86044 22.2826 9.89619 22.2183 9.92241 22.1517C9.94863 22.085 9.96293 22.0112 9.9677 21.9327C9.97008 21.8541 9.96054 21.7637 9.93671 21.6614C9.6769 20.5308 9.54819 19.9644 9.28838 18.8315H9.286Z" fill="#81B47E"/>
<path d="M18.4884 23.8411C18.6028 24.2885 18.7387 24.6122 18.8984 24.8097C19.0581 25.0097 19.2344 25.0763 19.4275 25.0073C20.276 24.7122 20.7027 24.5694 21.5608 24.2909C21.7562 24.2266 21.935 24.3028 22.0971 24.517C22.2592 24.7312 22.3974 25.0787 22.5142 25.5571C22.7692 26.5996 22.8956 27.1208 23.1506 28.1633C23.265 28.6369 23.3031 29.0106 23.2626 29.2843C23.2221 29.558 23.1053 29.7151 22.9075 29.7603C20.5478 30.3053 19.3655 30.5719 16.9963 31.086C16.8008 31.1288 16.6268 31.0527 16.4695 30.8646C16.3146 30.6766 16.1859 30.3839 16.0858 29.9864C14.5245 23.822 12.9657 17.66 11.4045 11.4957C11.302 11.0934 11.2662 10.7412 11.2925 10.4389C11.3187 10.1366 11.4092 9.89387 11.5642 9.71775C12.377 8.7919 12.8084 8.35873 13.7094 7.54713C13.8834 7.39004 14.0455 7.39004 14.1956 7.54237C14.3458 7.69469 14.4769 7.99696 14.5913 8.44679C15.8903 13.5758 17.1893 18.7073 18.4884 23.8363V23.8411Z" fill="#81B47E"/>
<path d="M22.8341 29.7794C22.7102 29.808 22.5839 29.7747 22.4575 29.6795C22.3312 29.5843 22.2144 29.4462 22.1071 29.2654C21.9999 29.0845 21.9069 28.8679 21.8283 28.618C21.7496 28.3681 21.6972 28.0967 21.6686 27.804C20.6556 20.4115 19.664 13.0143 18.7177 5.61226C18.6963 5.33141 18.6891 5.08626 18.7011 4.87444C18.7106 4.66499 18.7368 4.48411 18.7773 4.33416C18.8178 4.18422 18.8727 4.06046 18.9418 3.96525C19.0109 3.87005 19.092 3.79627 19.1873 3.74629C20.5102 3.05131 21.1966 2.74904 22.6029 2.23495C22.7078 2.19686 22.8079 2.18972 22.908 2.21115C23.0081 2.23257 23.1082 2.28969 23.2083 2.38251C23.3084 2.47533 23.4062 2.60386 23.5063 2.77046C23.604 2.93707 23.7041 3.14889 23.8066 3.40356C26.276 10.7199 28.6595 18.06 30.9549 25.4311C31.0574 25.7286 31.1312 26.0166 31.1718 26.2974C31.2147 26.5783 31.2266 26.8353 31.2123 27.0638C31.198 27.2923 31.1527 27.4827 31.0812 27.635C31.0097 27.785 30.912 27.8754 30.788 27.904C29.8394 28.1301 29.365 28.2419 28.4164 28.4656C28.2758 28.499 28.1304 28.4204 27.985 28.2324C27.8372 28.0444 27.7109 27.7754 27.606 27.4303C27.3986 26.5949 27.2937 26.176 27.084 25.3406C27.0172 25.1502 26.9386 25.005 26.8528 24.9051C26.767 24.8027 26.6812 24.7646 26.5977 24.7861C25.9995 24.9432 25.7015 25.0241 25.1033 25.1883C25.0246 25.2097 24.9674 25.2835 24.934 25.4096C24.9007 25.5358 24.8935 25.6929 24.9102 25.8785C25.0818 26.7377 25.1676 27.1661 25.3392 28.023C25.3893 28.3633 25.3893 28.6465 25.3392 28.8726C25.2892 29.0987 25.1938 29.2273 25.0508 29.2606C24.1641 29.4677 23.7208 29.57 22.8317 29.7747L22.8341 29.7794ZM24.7672 19.1644C24.8053 19.1525 24.8363 19.1239 24.8578 19.0787C24.8816 19.0334 24.8959 18.9763 24.9007 18.9097C24.9054 18.843 24.9007 18.7669 24.8911 18.6812C24.8792 18.5955 24.8578 18.5098 24.8292 18.4242C24.269 16.4106 23.9901 15.4062 23.4276 13.3998C23.3823 13.2666 23.3371 13.169 23.2918 13.1118C23.2465 13.0523 23.206 13.0309 23.175 13.0428C23.1416 13.0547 23.1178 13.0999 23.1058 13.1809C23.0915 13.2618 23.0939 13.3737 23.1082 13.5165C23.4658 15.58 23.6445 16.6105 24.0044 18.6622C24.014 18.7597 24.033 18.8478 24.0593 18.9287C24.0855 19.0096 24.1141 19.0787 24.1475 19.1358C24.1808 19.1929 24.219 19.2358 24.2571 19.2643C24.2976 19.2929 24.3381 19.3 24.3763 19.2881C24.5312 19.2381 24.6099 19.2143 24.7648 19.1644H24.7672Z" fill="#81B47E"/>
<path d="M37.497 7.78036C37.559 8.21591 37.5542 8.53722 37.4779 8.74428C37.4016 8.95135 37.2634 9.05607 37.0608 9.05845C35.8094 9.07273 35.1849 9.10129 33.936 9.20601C33.7882 9.21791 33.6595 9.14175 33.5522 8.97277C33.4426 8.80378 33.3615 8.5515 33.3043 8.21591C33.1732 7.44477 33.1089 7.0592 32.9778 6.28805C32.9563 6.16429 32.9253 6.06433 32.8872 5.98579C32.8467 5.90724 32.7942 5.84536 32.7275 5.80728C32.6631 5.76682 32.5821 5.74302 32.4915 5.7335C32.401 5.72398 32.2937 5.72398 32.1698 5.7335C32.0458 5.74302 31.9409 5.76444 31.8551 5.78824C31.7693 5.81442 31.7002 5.8525 31.6525 5.90248C31.6049 5.95247 31.5739 6.02149 31.5596 6.10717C31.5477 6.19285 31.55 6.2952 31.5715 6.41896C31.7598 7.47571 31.8527 8.00646 32.041 9.06321C32.0935 9.35596 32.1888 9.60111 32.3318 9.79865C32.4725 9.9962 32.6465 10.1652 32.8538 10.308C33.0612 10.4508 33.2924 10.5746 33.5546 10.6817C33.8144 10.7911 34.0909 10.903 34.3793 11.0244C34.6677 11.1434 34.968 11.2767 35.2755 11.4219C35.5854 11.567 35.8881 11.7479 36.1884 11.9621C36.4887 12.1763 36.7795 12.431 37.0608 12.7238C37.3421 13.0165 37.6019 13.3711 37.8378 13.7853C38.0738 14.1994 38.2836 14.6778 38.4623 15.2228C38.6435 15.7679 38.7841 16.3986 38.8866 17.1174C39.063 18.3431 39.1512 18.9548 39.3275 20.1805C39.4205 20.8207 39.4801 21.4134 39.5063 21.9632C39.5349 22.513 39.5182 23.0223 39.4563 23.4912C39.3967 23.96 39.2846 24.3885 39.1273 24.7764C38.9676 25.1644 38.746 25.5118 38.4623 25.8213C38.1787 26.1307 37.8235 26.3972 37.4016 26.621C36.9798 26.8447 36.4721 27.0279 35.8809 27.1684C35.2874 27.3088 34.7583 27.3659 34.2887 27.3326C33.8192 27.2993 33.3997 27.1922 33.0278 27.0089C32.6584 26.8256 32.3295 26.5781 32.0482 26.2616C31.7646 25.945 31.5167 25.5761 31.2998 25.1548C31.0852 24.7336 30.8993 24.2647 30.742 23.7482C30.5847 23.2317 30.4488 22.6843 30.332 22.106C30.1795 21.3443 30.1008 20.9612 29.9483 20.1995C29.8553 19.733 29.8315 19.3713 29.8839 19.1095C29.934 18.8477 30.0532 18.6953 30.2391 18.6549C31.4166 18.3883 32.0077 18.2669 33.1971 18.048C33.3377 18.0218 33.4593 18.0908 33.5617 18.2526C33.6642 18.4145 33.7453 18.6668 33.8073 19.0119C33.9455 19.7902 34.0146 20.1781 34.1505 20.954C34.1719 21.0778 34.2029 21.1777 34.2411 21.2515C34.2792 21.3253 34.3292 21.38 34.3888 21.4181C34.4484 21.4562 34.5199 21.4753 34.601 21.4776C34.6844 21.4776 34.7797 21.4681 34.8918 21.4467C35.0014 21.4253 35.0944 21.3991 35.1706 21.3658C35.2469 21.3348 35.3065 21.2896 35.3494 21.2325C35.3923 21.1754 35.4209 21.1063 35.4304 21.023C35.44 20.9397 35.4352 20.8374 35.4138 20.7136C35.2374 19.664 35.1468 19.138 34.9704 18.0884C34.9204 17.7981 34.8298 17.5553 34.6963 17.3601C34.5628 17.165 34.3984 17.0007 34.2005 16.8651C34.0027 16.7294 33.781 16.6128 33.5308 16.5152C33.2829 16.4176 33.0183 16.3176 32.7394 16.2153C32.4605 16.113 32.1698 16.0011 31.8694 15.8773C31.5691 15.756 31.2688 15.5989 30.9684 15.4085C30.6705 15.2181 30.3749 14.9872 30.0865 14.7135C29.7981 14.4398 29.524 14.0994 29.2642 13.6924C29.0044 13.2854 28.7684 12.8023 28.5515 12.243C28.3346 11.6837 28.1511 11.0244 27.9962 10.2651C27.7364 8.97039 27.6053 8.32539 27.3455 7.03064C27.2096 6.36184 27.1166 5.73112 27.0666 5.14562C27.0165 4.55775 27.0189 4.01509 27.0785 3.51528C27.1381 3.01784 27.2573 2.56325 27.4384 2.15626C27.6196 1.74927 27.8746 1.38988 28.2012 1.08285C28.5277 0.775823 28.9377 0.528296 29.4263 0.347411C29.9173 0.166526 30.4989 0.0499031 31.1734 0.011822C31.8456 -0.026259 32.4558 0.0284825 32.9968 0.164146C33.5403 0.29981 34.0242 0.502115 34.4484 0.766303C34.8727 1.03049 35.2421 1.34704 35.5544 1.71357C35.8666 2.0801 36.1312 2.48471 36.3529 2.92502C36.5722 3.36771 36.7533 3.83897 36.8916 4.34116C37.0322 4.84336 37.1395 5.36697 37.2205 5.91676C37.3278 6.66649 37.3826 7.04015 37.4898 7.7875L37.497 7.78036Z" fill="#81B47E"/>
<path d="M45.8347 2.94406C46.0611 3.03926 46.2399 3.21777 46.3758 3.47244C46.5116 3.72948 46.5974 4.05317 46.6356 4.45064C46.719 5.31699 46.7595 5.75016 46.8429 6.6165C46.8811 7.00921 46.8525 7.29006 46.7595 7.46142C46.6666 7.63279 46.5116 7.68753 46.2923 7.62327C45.7584 7.46619 45.4891 7.3924 44.948 7.25436C44.7764 7.21152 44.6549 7.26388 44.5833 7.4162C44.5118 7.56615 44.4952 7.81129 44.5309 8.14926C45.0601 13.1212 45.5868 18.0908 46.116 23.0628C46.1613 23.484 46.1446 23.8149 46.0683 24.06C45.992 24.3051 45.8562 24.448 45.6631 24.4908C44.6549 24.7074 44.1495 24.8169 43.1413 25.043C42.9482 25.0858 42.7838 24.9977 42.6527 24.7788C42.5192 24.5598 42.4239 24.2171 42.3643 23.7577C41.6683 18.3359 40.9747 12.9142 40.2787 7.48999C40.231 7.12346 40.1523 6.84023 40.0355 6.64268C39.9211 6.44514 39.7733 6.33565 39.5946 6.31661C39.0392 6.25949 38.7627 6.23807 38.2074 6.20237C37.9833 6.18809 37.7926 6.05243 37.6377 5.79538C37.4828 5.53833 37.3707 5.16942 37.304 4.69341C37.1538 3.64142 37.0776 3.11543 36.9274 2.06344C36.8583 1.58028 36.8678 1.22089 36.956 0.985267C37.0442 0.749641 37.2063 0.647298 37.4399 0.678239C40.3239 1.05905 43.1532 1.82543 45.8347 2.94644V2.94406Z" fill="#81B47E"/>
<path d="M46.884 4.55491C46.8459 4.15982 46.8768 3.88611 46.9746 3.73617C47.0723 3.58623 47.2296 3.5648 47.4489 3.66953C48.6001 4.22646 49.1674 4.53587 50.2734 5.21181C50.4855 5.34271 50.6548 5.53312 50.7787 5.77589C50.9027 6.01865 50.9789 6.30664 51.0075 6.64461C51.4437 11.7951 51.8823 16.9455 52.3185 22.0936C52.3471 22.4268 52.3185 22.6886 52.2327 22.8838C52.1469 23.079 52.0086 23.1956 51.8156 23.2337C50.8097 23.4265 50.3068 23.5264 49.2985 23.7287C49.1078 23.7668 48.9505 23.6954 48.8314 23.5098C48.7098 23.3241 48.6311 23.0361 48.5954 22.6458C48.0257 16.6147 47.456 10.5836 46.884 4.55253V4.55491Z" fill="#81B47E"/>
<path d="M55.6523 22.6745C55.2042 22.6864 54.8109 22.6507 54.4725 22.5603C54.134 22.4698 53.848 22.327 53.6096 22.1271C53.3737 21.9295 53.1758 21.682 53.0161 21.3893C52.8564 21.0965 52.7349 20.7586 52.6467 20.3777C52.5585 19.9969 52.4965 19.578 52.4584 19.1282C52.1962 16.0222 51.9316 12.9186 51.6694 9.81263C51.6313 9.3628 51.6241 8.95819 51.6504 8.60594C51.6766 8.25369 51.7457 7.9657 51.8601 7.74435C51.9745 7.52301 52.1366 7.37306 52.3464 7.30166C52.5561 7.22788 52.8255 7.24454 53.152 7.3564C53.4785 7.46827 53.8647 7.67771 54.3033 7.99188C54.7442 8.30605 55.2495 8.73208 55.8097 9.28188C56.3722 9.83167 56.8536 10.3719 57.2684 10.8718C57.6807 11.3716 58.0359 11.8452 58.3362 12.2712C58.6365 12.6996 58.8892 13.09 59.0989 13.4375C59.3087 13.785 59.4827 14.0967 59.6257 14.3728C59.7687 14.6513 59.8831 14.8988 59.9689 15.1226C60.0547 15.3463 60.1215 15.5557 60.1692 15.7533C60.2311 16.0198 60.2645 16.1531 60.3265 16.4197C60.3575 16.5554 60.3408 16.6268 60.274 16.6363C60.2073 16.6458 60.0905 16.5934 59.9284 16.4768C58.9464 15.7723 58.4387 15.4462 57.3923 14.8393C57.266 14.7655 57.1659 14.6703 57.0896 14.549C57.0133 14.4276 56.9657 14.2848 56.9466 14.1277C56.8966 13.6969 56.8727 13.4803 56.8227 13.0495C56.8131 12.9662 56.7941 12.8924 56.7655 12.8258C56.7369 12.7592 56.694 12.6901 56.6391 12.6235C56.5843 12.5568 56.5152 12.4878 56.427 12.414C56.3412 12.3426 56.2363 12.2617 56.1124 12.1737C55.9884 12.0856 55.8859 12.0166 55.8001 11.9666C55.7167 11.9166 55.6476 11.8904 55.5999 11.8857C55.5498 11.8809 55.5165 11.8976 55.4974 11.938C55.4783 11.9785 55.4736 12.0451 55.4831 12.138C55.7119 14.468 55.9407 16.8005 56.1696 19.1306C56.1791 19.2234 56.1982 19.2996 56.2292 19.3567C56.2601 19.4138 56.303 19.459 56.3579 19.4924C56.4151 19.5257 56.4866 19.5495 56.5748 19.5661C56.663 19.5828 56.7702 19.5947 56.8942 19.6018C57.0205 19.609 57.1254 19.6114 57.2112 19.6066C57.297 19.6018 57.3661 19.5876 57.4162 19.5661C57.4662 19.5423 57.4996 19.5066 57.5187 19.459C57.5377 19.4114 57.5425 19.3472 57.533 19.2639C57.4829 18.8331 57.4591 18.6165 57.409 18.1857C57.3899 18.0239 57.409 17.9096 57.471 17.8454C57.5306 17.7811 57.6235 17.7668 57.7499 17.8025C58.8129 18.0905 59.3373 18.2523 60.3622 18.6046C60.5338 18.6641 60.6721 18.7474 60.777 18.8497C60.8818 18.9521 60.951 19.0711 60.9843 19.2091C61.0463 19.4757 61.0797 19.609 61.1416 19.8755C61.1893 20.0755 61.206 20.2564 61.1917 20.4253C61.1774 20.5943 61.1226 20.7514 61.0248 20.899C60.9271 21.0489 60.7841 21.1917 60.591 21.3321C60.398 21.4726 60.1477 21.6106 59.8402 21.7439C59.5304 21.8772 59.1585 22.0105 58.7223 22.1366C58.2862 22.2628 57.7785 22.3865 57.1969 22.4912C56.6177 22.5983 56.1028 22.6626 55.6547 22.6745H55.6523Z" fill="#81B47E"/>
<path d="M67.8845 23.1123L62.8433 14.8916L67.372 36.7882L64.2043 40.9676C63.7848 41.9625 63.0483 42.7884 62.1068 43.3191L58.0762 45.5944L61.6515 46.3085L64.6953 50.6997C65.4985 51.8588 66.6951 52.6847 68.0656 53.0274L69.6197 53.4153C70.299 53.5843 71.0188 53.3987 71.5313 52.9227L74.2843 50.357L72.3775 48.6909L70.4229 50.2879C70.0177 50.6188 69.4528 50.683 68.9857 50.4474L67.8487 49.8809L67.1336 39.6467L69.0762 37.983C69.7341 37.4189 70.7566 37.7141 71.0117 38.5423L72.3775 42.9788V48.4529L74.2843 50.357L74.9994 45.1208L71.0451 30.4525C70.3491 27.8677 69.2836 25.3972 67.8845 23.1123Z" fill="#81B47E"/>
</svg>
