<svg width="101" height="91" viewBox="0 0 101 91" fill="none" xmlns="http://www.w3.org/2000/svg">
<path d="M2.13411 55.1047C3.4146 59.2602 -2.02747 81.3163 0.853623 84.8325C3.73472 88.3487 2.45423 91.2256 5.97557 90.906C9.49692 90.5863 11.7378 89.3077 12.6981 89.3077C12.8358 89.3077 12.8998 89.215 12.9094 89.0552L11.0975 84.8325C11.0975 84.8325 9.81704 86.4308 8.53655 86.1112C7.25606 85.7915 9.17679 80.677 9.17679 80.677L7.57618 75.8822L7.89631 70.4481L12.0579 64.055L14.939 71.0874L14.6189 79.7181L11.0975 84.8325C11.0975 84.8325 12.9734 88.1154 12.9094 89.0552L13.0183 89.3077L14.939 88.988L18.7805 82.2753L21.6616 73.9643L20.0609 66.2926L14.939 62.7764L8.61338 59.3849C6.98716 58.3236 6.07481 56.4568 6.23167 54.5229L6.32771 42.2642C2.77115 47.7239 1.03609 51.5309 2.13411 55.1015V55.1047Z" fill="#FF2A00"/>
<path d="M11.5459 59.3335C10.8865 58.838 10.3166 58.3618 9.83646 57.9206C9.35627 57.4795 8.95292 57.0704 8.6328 56.6996C8.30947 56.3256 8.05018 55.9803 7.8517 55.6639C7.65323 55.3474 7.50597 55.0501 7.41313 54.772C7.3203 54.4939 7.26268 54.2222 7.24667 53.9569C7.09621 51.7449 7.02258 50.6421 6.87213 48.4301C6.85292 48.1616 6.87533 47.9155 6.93935 47.6853C7.00338 47.4552 7.12182 47.2378 7.29789 47.0332C7.47396 46.8286 7.71405 46.6304 8.01816 46.4387C8.32228 46.2469 8.70643 46.0583 9.1674 45.8761C9.63158 45.6939 10.179 45.5117 10.8128 45.339C11.4467 45.1664 12.183 44.997 13.0185 44.8436C13.8572 44.6901 14.5967 44.591 15.2401 44.5559C15.8836 44.5207 16.4438 44.5463 16.9208 44.639C17.3977 44.7285 17.8043 44.8851 18.134 45.1089C18.4637 45.3326 18.7358 45.6107 18.9503 45.9496C19.1648 46.2852 19.3249 46.6784 19.4337 47.1227C19.5426 47.567 19.613 48.0561 19.6482 48.5835C19.693 49.29 19.7154 49.6448 19.7602 50.3544C19.7826 50.7156 19.7314 50.9905 19.6002 51.1727C19.4721 51.3549 19.2704 51.4349 18.9983 51.4189C17.3689 51.307 16.559 51.2367 14.9488 51.0641C14.7567 51.0449 14.6031 50.9682 14.4942 50.8435C14.3854 50.7188 14.3246 50.5494 14.315 50.3352C14.283 49.7503 14.2669 49.4594 14.2381 48.8744C14.2317 48.7625 14.2093 48.673 14.1709 48.6059C14.1325 48.5388 14.0717 48.4844 13.9916 48.4493C13.9116 48.4109 13.806 48.3885 13.6779 48.3758C13.5499 48.3662 13.393 48.3598 13.2073 48.3598C13.0217 48.3598 12.868 48.3662 12.74 48.379C12.6151 48.3917 12.5127 48.4141 12.4358 48.4461C12.359 48.4812 12.3046 48.5292 12.2726 48.5899C12.2406 48.6507 12.2246 48.7306 12.231 48.8329C12.3878 51.8792 12.4679 53.4039 12.6247 56.4502C12.6311 56.5525 12.6535 56.6388 12.6919 56.7187C12.7304 56.7955 12.7912 56.869 12.8744 56.9393C12.9544 57.0096 13.0633 57.0799 13.1945 57.1503C13.3258 57.2206 13.4858 57.3005 13.6747 57.3836C13.8636 57.4667 14.0269 57.5307 14.1581 57.5722C14.2894 57.6138 14.395 57.6361 14.475 57.633C14.5551 57.633 14.6095 57.6042 14.6447 57.5498C14.6767 57.4987 14.6927 57.4156 14.6863 57.3037C14.6543 56.7187 14.6383 56.4279 14.6095 55.8429C14.5967 55.6223 14.6415 55.4753 14.7407 55.3954C14.84 55.3155 14.9872 55.3027 15.1825 55.3602C16.8183 55.8397 17.6474 56.0571 19.3121 56.447C19.5906 56.511 19.8083 56.6516 19.9651 56.8754C20.122 57.0959 20.2116 57.3932 20.234 57.7576C20.2788 58.4641 20.3012 58.8189 20.3461 59.5253C20.3813 60.0559 20.3685 60.5322 20.3108 60.951C20.2532 61.3697 20.1348 61.7245 19.9523 61.9994C19.7698 62.2775 19.5169 62.4789 19.1936 62.5972C18.8703 62.7155 18.4605 62.741 17.9644 62.6643C17.4682 62.5876 16.8791 62.4086 16.2037 62.1209C15.525 61.8332 14.7407 61.4241 13.8604 60.8934C12.9833 60.3628 12.215 59.8354 11.5555 59.3399L11.5459 59.3335Z" fill="#FF2A00"/>
<path d="M27.1645 43.9134C27.1229 43.4371 27.1645 43.0631 27.2861 42.785C27.411 42.5101 27.6094 42.3407 27.8847 42.2831C29.3349 41.9827 30.0616 41.8292 31.5117 41.516C31.7934 41.4552 32.0207 41.5447 32.1936 41.7845C32.3665 42.0242 32.4817 42.4078 32.5393 42.932C33.41 50.9618 34.2808 58.9947 35.1515 67.0244C35.2091 67.5454 35.1675 67.9258 35.0331 68.172C34.8986 68.4149 34.6681 68.5076 34.3448 68.4437C32.6802 68.1208 31.8511 67.929 30.1992 67.4911C29.8855 67.408 29.6326 67.2162 29.4469 66.9221C29.2581 66.628 29.146 66.2444 29.1044 65.7745C28.8195 62.578 28.6786 60.9797 28.3937 57.78C28.3713 57.5083 28.3073 57.3005 28.2081 57.1567C28.1088 57.0128 27.9744 56.9297 27.8047 56.9137C27.443 56.8786 27.2637 56.8594 26.902 56.8178C26.7355 56.7986 26.6139 56.8498 26.5338 56.9713C26.4538 57.0927 26.425 57.2813 26.4474 57.5434C26.7003 60.6153 26.8283 62.1497 27.0812 65.2215C27.1197 65.6755 27.0652 65.9951 26.9244 66.1805C26.7803 66.3659 26.553 66.4075 26.2393 66.302C24.6067 65.7522 23.7968 65.4517 22.193 64.79C21.8889 64.6653 21.6488 64.4608 21.4727 64.1859C21.2998 63.911 21.2006 63.5817 21.175 63.1917C20.7812 57.1535 20.3875 51.1152 19.9905 45.0769C19.9649 44.6806 20.0193 44.3705 20.1506 44.1403C20.2818 43.9102 20.4867 43.7631 20.762 43.712C22.2122 43.4339 22.9357 43.2901 24.3858 42.9992C24.6643 42.9448 24.8852 43.0183 25.0485 43.2229C25.2117 43.4307 25.3142 43.7631 25.3494 44.2234C25.5607 46.8063 25.6695 48.0977 25.8808 50.6805C25.9032 50.9362 25.9608 51.128 26.06 51.2622C26.1593 51.3965 26.2905 51.4636 26.4506 51.4636C26.8027 51.4636 26.9756 51.4636 27.3277 51.4572C27.4942 51.4572 27.6126 51.3837 27.6831 51.2431C27.7567 51.1024 27.7791 50.8978 27.7567 50.6325C27.5166 47.9442 27.3982 46.5985 27.1613 43.9102L27.1645 43.9134Z" fill="#FF2A00"/>
<path d="M36.7234 68.8625C36.5217 68.8305 36.3296 68.7346 36.1568 68.5748C35.9807 68.415 35.8334 68.22 35.715 67.9834C35.5966 67.7469 35.5069 67.4848 35.4525 67.1939C35.3949 66.903 35.3853 66.6057 35.4173 66.2989C35.7534 58.2627 35.9551 50.2298 36.0479 42.1873C36.0671 41.8837 36.1023 41.6183 36.1536 41.3978C36.2016 41.1772 36.2656 40.9918 36.3424 40.8416C36.4193 40.6913 36.5121 40.5763 36.6145 40.4932C36.7202 40.41 36.8354 40.3525 36.9667 40.3237C38.7754 39.921 39.6813 39.7196 41.49 39.3104C41.6245 39.2817 41.7525 39.2849 41.8741 39.32C41.9958 39.3552 42.1142 39.4319 42.2295 39.547C42.3447 39.6621 42.4536 39.8187 42.5624 40.0169C42.668 40.2151 42.7737 40.4644 42.8761 40.7649C45.2995 49.4179 47.7868 58.0518 50.3414 66.6665C50.463 67.0181 50.5399 67.3601 50.5687 67.6862C50.5975 68.0122 50.5847 68.3063 50.5302 68.5684C50.4758 68.8273 50.3798 69.0383 50.2453 69.2013C50.1109 69.3611 49.9444 69.4506 49.7427 69.4634C48.203 69.5625 47.4283 69.5849 45.8757 69.5817C45.6452 69.5817 45.4307 69.457 45.2322 69.2109C45.0338 68.9648 44.8865 68.6387 44.7873 68.2328C44.6176 67.2642 44.5344 66.7815 44.3647 65.813C44.2943 65.5892 44.2014 65.407 44.0894 65.276C43.9773 65.1417 43.8525 65.0778 43.7213 65.0778C42.7737 65.0842 42.2967 65.0778 41.3491 65.049C41.2243 65.0458 41.1219 65.1033 41.0418 65.2248C40.965 65.3463 40.917 65.5093 40.9074 65.7139C40.9874 66.6824 41.029 67.1651 41.1059 68.1305C41.1059 68.5077 41.045 68.8049 40.9138 69.0223C40.7825 69.2397 40.6001 69.3356 40.3696 69.3132C38.913 69.1757 38.1863 69.0862 36.7298 68.8593L36.7234 68.8625ZM41.999 58.4641C42.0566 58.4641 42.1078 58.4386 42.1495 58.3938C42.1911 58.3491 42.2231 58.2915 42.2423 58.2212C42.2615 58.1509 42.2711 58.0646 42.2679 57.9687C42.2679 57.8728 42.2487 57.7737 42.2231 57.6714C41.7589 55.3347 41.5284 54.1712 41.0738 51.8473C41.0322 51.6906 40.9842 51.5756 40.933 51.4989C40.8818 51.4221 40.8306 51.3902 40.7825 51.3934C40.7345 51.3998 40.6961 51.4445 40.6641 51.5276C40.6321 51.6107 40.6161 51.7322 40.6129 51.8952C40.7665 54.2287 40.8402 55.3922 40.9842 57.7065C40.9842 57.8152 40.9906 57.9143 41.013 58.0102C41.0354 58.1029 41.0674 58.186 41.1059 58.2595C41.1443 58.3299 41.1891 58.3874 41.2435 58.429C41.2979 58.4705 41.3556 58.4897 41.4164 58.4897C41.6533 58.4801 41.7717 58.4737 42.0054 58.4641H41.999Z" fill="#FF2A00"/>
<path d="M52.182 69.2524C52.038 69.2684 51.9003 69.2332 51.7627 69.1533C51.6282 69.0734 51.5034 68.9551 51.3913 68.7985C51.2793 68.645 51.18 68.4532 51.0936 68.2231C51.0072 67.9961 50.9432 67.7468 50.9015 67.4815C49.445 58.3522 47.9884 49.226 46.5287 40.0967C46.4839 39.825 46.4679 39.5693 46.4743 39.3295C46.4807 39.0898 46.5095 38.882 46.5607 38.6998C46.6119 38.5208 46.6823 38.3706 46.7752 38.2523C46.868 38.134 46.9768 38.0605 47.1049 38.0317C48.4334 37.7281 49.0993 37.5746 50.4278 37.271C50.6102 37.2294 50.7895 37.2901 50.9656 37.4532C51.1416 37.6162 51.2953 37.8559 51.4297 38.1756C52.7999 41.2507 54.1892 44.3129 55.6073 47.3656C55.6714 47.4903 55.7322 47.5702 55.7898 47.6022C55.8506 47.6342 55.8986 47.6278 55.9403 47.583C55.9819 47.5383 56.0075 47.4615 56.0171 47.3497C56.0267 47.2378 56.0171 47.1003 55.9883 46.9309C55.3384 43.501 55.0119 41.7877 54.3621 38.3578C54.3108 38.0829 54.2852 37.824 54.2852 37.5842C54.2852 37.3445 54.3076 37.1271 54.3525 36.9385C54.3973 36.7499 54.4677 36.5965 54.5573 36.4782C54.647 36.3599 54.7558 36.2864 54.8839 36.2577C56.1996 35.9604 56.8558 35.8101 58.1715 35.5129C58.2996 35.4841 58.4276 35.5033 58.5525 35.5736C58.6773 35.6407 58.7957 35.7494 58.9046 35.8933C59.0134 36.0371 59.1127 36.2193 59.2023 36.4367C59.2919 36.654 59.3624 36.9002 59.4168 37.1687C61.2191 46.2309 63.0214 55.2931 64.8236 64.3553C64.8749 64.6174 64.9037 64.8763 64.9037 65.1224C64.9037 65.3686 64.8813 65.5891 64.8333 65.7809C64.7852 65.9727 64.7148 66.1358 64.6188 66.2668C64.5259 66.4011 64.4107 66.4906 64.2762 66.5385C62.8677 67.034 62.1506 67.2545 60.7069 67.6477C60.5148 67.6989 60.3259 67.6541 60.1371 67.5103C59.9482 67.3664 59.7849 67.1427 59.6441 66.839C58.2035 64.0612 56.7918 61.2674 55.3993 58.464C55.3256 58.3042 55.2552 58.2019 55.1848 58.1508C55.1143 58.0996 55.0599 58.0996 55.0119 58.1444C54.9671 58.1891 54.9383 58.2787 54.9287 58.4129C54.9191 58.5472 54.9319 58.7198 54.9735 58.9275C55.5657 61.9994 55.8602 63.537 56.4525 66.6088C56.5069 66.8901 56.5293 67.1523 56.5261 67.3984C56.5229 67.6445 56.4909 67.8619 56.4332 68.0505C56.3756 68.2423 56.2956 68.3989 56.1964 68.5172C56.0939 68.6355 55.9723 68.709 55.8282 68.7345C54.3813 68.9871 53.6514 69.0894 52.182 69.2492V69.2524Z" fill="#FF2A00"/>
<path d="M74.2352 41.1197C74.3216 41.5129 74.3152 41.839 74.2224 42.1043C74.1296 42.3696 73.9471 42.5582 73.675 42.6637C72.1608 43.2582 71.3957 43.5459 69.8527 44.0925C69.6639 44.1597 69.5006 44.1117 69.3565 43.9455C69.2125 43.7825 69.1004 43.5076 69.0204 43.124C68.7995 42.0883 68.6875 41.5705 68.4666 40.5348C68.425 40.3366 68.3738 40.1832 68.3097 40.0745C68.2457 39.9658 68.1721 39.8859 68.0793 39.8411C67.9864 39.7964 67.8744 39.7804 67.7431 39.7964C67.6119 39.8124 67.455 39.8443 67.2693 39.8987C67.0869 39.9498 66.9332 40.0073 66.8116 40.0649C66.6899 40.1224 66.5971 40.1959 66.5363 40.2886C66.4722 40.3813 66.437 40.4932 66.4274 40.6243C66.4178 40.7585 66.4338 40.9248 66.4754 41.1261C67.5511 46.2118 68.6267 51.2975 69.6991 56.3832C69.7407 56.5846 69.7951 56.7381 69.8559 56.8467C69.9168 56.9522 69.9968 57.0194 70.0896 57.0481C70.1857 57.0769 70.3041 57.0705 70.4418 57.0321C70.5794 56.9938 70.7491 56.9267 70.9443 56.8308C71.1396 56.7349 71.2997 56.6422 71.4245 56.5527C71.5494 56.4632 71.6454 56.3641 71.7158 56.2586C71.7831 56.1531 71.8215 56.0316 71.8279 55.8942C71.8343 55.7567 71.8183 55.5905 71.7767 55.3923C71.4918 54.0626 71.3477 53.3977 71.0628 52.0711C71.034 51.9305 70.9924 51.8314 70.9411 51.7706C70.8899 51.7131 70.8291 51.6971 70.7587 51.7291C70.6146 51.793 70.5442 51.825 70.4001 51.8889C70.2305 51.9656 70.0832 51.9337 69.9648 51.7994C69.8463 51.6651 69.7503 51.4254 69.6767 51.0802C69.4366 49.9582 69.3181 49.3988 69.078 48.2768C68.9724 47.7781 68.9564 47.3754 69.03 47.0685C69.1036 46.7616 69.2637 46.5635 69.507 46.474C71.3669 45.7771 72.2825 45.4063 74.0943 44.6264C74.3632 44.5113 74.5969 44.556 74.7922 44.7574C74.9875 44.962 75.1411 45.3168 75.2532 45.8283C75.8742 48.6796 76.1847 50.1052 76.8058 52.9597C76.9594 53.6598 77.0619 54.3279 77.1195 54.9768C77.1771 55.6225 77.1707 56.249 77.1035 56.8595C77.0363 57.4669 76.9018 58.0646 76.6937 58.6464C76.4889 59.2282 76.1975 59.8004 75.8166 60.3565C75.4357 60.9095 74.9587 61.4562 74.3793 61.9772C73.7998 62.4982 73.102 63.0033 72.2793 63.47C71.4597 63.9335 70.7107 64.2499 70.0384 64.4258C69.3661 64.6016 68.7611 64.6527 68.2233 64.5856C67.6855 64.5185 67.2117 64.333 66.802 64.039C66.3922 63.7449 66.0337 63.3549 65.7232 62.8722C65.4158 62.3896 65.1501 61.8174 64.9293 61.1557C64.7084 60.494 64.5163 59.7588 64.3562 58.9501C63.239 53.3785 62.125 47.8037 61.0078 42.2321C60.8445 41.4234 60.7357 40.6626 60.678 39.953C60.6204 39.2434 60.63 38.5849 60.7068 37.9807C60.7869 37.3766 60.9373 36.8236 61.1678 36.3249C61.3951 35.8263 61.7184 35.382 62.1314 34.992C62.5443 34.6052 63.0597 34.2696 63.6712 33.9883C64.2826 33.707 65.0125 33.4768 65.8544 33.301C66.6995 33.122 67.4614 33.0389 68.1337 33.0421C68.8059 33.0421 69.4078 33.1252 69.936 33.2818C70.4642 33.4385 70.9251 33.6718 71.3253 33.9787C71.7222 34.2855 72.068 34.6595 72.3625 35.1007C72.657 35.5386 72.9099 36.0468 73.118 36.6222C73.3261 37.1976 73.5053 37.8337 73.659 38.5305C73.8831 39.5662 73.9983 40.0841 74.2224 41.1197H74.2352Z" fill="#FF2A00"/>
<path d="M79.3956 58.0262C79.1523 58.2276 78.9378 58.2499 78.749 58.0869C78.5633 57.9271 78.4128 57.5947 78.304 57.096C76.6201 49.3572 74.9363 41.6183 73.2525 33.8827C73.1436 33.3776 73.1308 32.9781 73.2236 32.684C73.3133 32.3931 73.499 32.2205 73.7775 32.1661C76.729 31.5684 79.6901 31.0026 82.6544 30.4784C82.9361 30.4272 83.1698 30.4912 83.3523 30.6574C83.5348 30.8268 83.6596 31.0953 83.7301 31.4725C83.8805 32.294 83.9573 32.7032 84.1078 33.5247C84.1782 33.8987 84.159 34.2055 84.0598 34.4517C83.9605 34.6978 83.7781 34.8736 83.5124 34.9695C82.123 35.4778 81.4252 35.7271 80.0166 36.2194C79.8118 36.2897 79.6741 36.4335 79.6037 36.6445C79.5332 36.8587 79.5332 37.1368 79.6037 37.4788C79.7509 38.1757 79.8246 38.5241 79.9686 39.2209C80.039 39.5598 80.1479 39.7931 80.2887 39.9242C80.4296 40.052 80.5993 40.0712 80.7945 39.9753C82.0142 39.3903 82.616 39.0899 83.8069 38.4761C84.0598 38.3451 84.2711 38.3451 84.4407 38.4761C84.6072 38.604 84.7256 38.8565 84.7993 39.2401C84.9305 39.9369 84.9945 40.2822 85.1258 40.979C85.1962 41.3626 85.1898 41.695 85.1066 41.9859C85.0233 42.2768 84.8633 42.5134 84.6232 42.686C83.5028 43.5011 82.9329 43.8975 81.7709 44.6582C81.5852 44.7797 81.4572 44.9619 81.3964 45.2017C81.3323 45.4414 81.3387 45.7355 81.4124 46.0775C81.6012 46.9725 81.6941 47.4201 81.8829 48.3119C81.9534 48.6507 82.0558 48.8713 82.1903 48.9736C82.3215 49.0759 82.4784 49.0503 82.6576 48.9033C83.9573 47.8228 84.588 47.2602 85.8108 46.0743C86.0317 45.8601 86.2174 45.793 86.3679 45.8729C86.5183 45.9528 86.6239 46.1766 86.6944 46.5506C86.8448 47.3657 86.9185 47.7717 87.0689 48.5868C87.1361 48.9576 87.1361 49.306 87.0689 49.6385C87.0017 49.9709 86.8672 50.2746 86.6624 50.5367C84.3383 53.2921 82.091 55.6192 79.4052 58.023L79.3956 58.0262Z" fill="#FF2A00"/>
<path d="M10.6911 20.2208C11.1393 19.3546 11.5746 18.6737 11.9812 18.1654C12.3877 17.6604 12.7719 17.312 13.1304 17.117C13.4889 16.922 13.8187 16.8708 14.1196 16.9603C14.4173 17.0498 14.699 17.2608 14.9519 17.5933C15.2048 17.9225 15.4417 18.3668 15.653 18.9198C15.8643 19.4696 16.0627 20.1185 16.2516 20.8569C16.7734 22.9251 17.0359 23.9608 17.5577 26.0321C17.7434 26.7705 17.8842 27.4674 17.9739 28.1195C18.0635 28.7716 18.0955 29.3885 18.0635 29.9639C18.0315 30.5393 17.9354 31.0795 17.769 31.5781C17.6057 32.08 17.3592 32.5499 17.0359 32.9974C16.7126 33.4417 16.306 33.8605 15.8194 34.2632C15.3328 34.666 14.7566 35.056 14.0972 35.4523C13.9467 35.5419 13.8699 35.5898 13.7194 35.6793C13.5978 35.7528 13.5178 35.8711 13.4793 36.0309C13.4409 36.1908 13.4441 36.3889 13.4953 36.6223C13.9723 38.8375 14.2092 39.9435 14.683 42.1587C14.7726 42.5806 14.7758 42.9195 14.6862 43.172C14.5966 43.4213 14.4205 43.5716 14.1548 43.6227C12.7783 43.8912 12.0868 44.0223 10.7071 44.2748C10.4446 44.3228 10.2333 44.2716 10.0732 44.1246C9.91318 43.9807 9.81715 43.7506 9.77873 43.4277C9.1705 38.4443 8.56227 33.4609 7.95404 28.4775C7.91562 28.1514 7.91242 27.8158 7.94443 27.4674C7.97645 27.119 8.04047 26.7705 8.14611 26.4317C8.97523 23.7818 9.49382 22.5415 10.6943 20.2272L10.6911 20.2208ZM12.471 25.3609C12.4389 25.2234 12.4037 25.1275 12.3621 25.0668C12.3205 25.0092 12.2757 24.9805 12.2213 24.9869C12.17 24.9933 12.1124 25.0252 12.0484 25.0892C11.9844 25.1531 11.9139 25.2362 11.8339 25.3417C11.6899 25.5367 11.6194 25.6358 11.4786 25.8339C11.4018 25.9426 11.3569 26.0737 11.3377 26.2271C11.3185 26.3806 11.3281 26.55 11.3697 26.7354C11.6835 28.1994 11.8403 28.9314 12.1572 30.3986C12.1957 30.584 12.2501 30.7023 12.3173 30.7566C12.3845 30.811 12.4614 30.795 12.5478 30.7119C12.7078 30.5584 12.7879 30.4817 12.9511 30.3283C13.0376 30.2452 13.1144 30.1621 13.1784 30.079C13.2425 29.9958 13.2905 29.9095 13.3257 29.82C13.3609 29.7305 13.3801 29.6314 13.3865 29.526C13.3897 29.4205 13.3769 29.299 13.3449 29.1615C12.996 27.6432 12.8231 26.8824 12.4742 25.3609H12.471Z" fill="#FF2A00"/>
<path d="M24.8309 32.0895C24.9845 32.6904 25.167 33.1251 25.3815 33.3904C25.596 33.659 25.8328 33.7485 26.0921 33.6558C27.2318 33.2594 27.8048 33.0676 28.9572 32.6936C29.2197 32.6073 29.4598 32.7096 29.6775 32.9973C29.8952 33.285 30.0809 33.7517 30.2377 34.3942C30.5803 35.7942 30.7499 36.4943 31.0925 37.8944C31.2461 38.5305 31.2973 39.0324 31.2429 39.4C31.1885 39.7676 31.0316 39.9785 30.7659 40.0393C27.5967 40.7713 26.0089 41.1293 22.8269 41.8197C22.5644 41.8773 22.3307 41.775 22.1194 41.5225C21.9114 41.2699 21.7385 40.8768 21.604 40.3429C19.5072 32.0639 17.4136 23.788 15.3168 15.509C15.1792 14.9688 15.1312 14.4957 15.1664 14.0897C15.2016 13.6838 15.3232 13.3577 15.5313 13.1212C16.6229 11.8777 17.2024 11.2959 18.4124 10.2059C18.6461 9.99494 18.8638 9.99494 19.0655 10.1995C19.2671 10.4041 19.4432 10.8101 19.5969 11.4142C21.3415 18.3028 23.0862 25.1945 24.8309 32.0831V32.0895Z" fill="#FF2A00"/>
<path d="M30.6668 40.0648C30.5003 40.1031 30.3307 40.0584 30.161 39.9305C29.9913 39.8027 29.8345 39.6173 29.6904 39.3743C29.5464 39.1314 29.4215 38.8405 29.3159 38.5049C29.2102 38.1692 29.1398 37.8048 29.1014 37.4117C27.7409 27.4832 26.4092 17.5483 25.1383 7.60707C25.1095 7.22988 25.0999 6.90064 25.1159 6.61614C25.1287 6.33485 25.1639 6.09191 25.2183 5.89053C25.2727 5.68915 25.3464 5.52293 25.4392 5.39506C25.532 5.2672 25.6409 5.16811 25.7689 5.10098C27.5456 4.16759 28.4675 3.76163 30.3563 3.07118C30.4971 3.02003 30.6316 3.01044 30.766 3.03921C30.9005 3.06798 31.0349 3.1447 31.1694 3.26936C31.3038 3.39403 31.4351 3.56664 31.5695 3.7904C31.7008 4.01416 31.8352 4.29865 31.9729 4.64068C35.2893 14.4669 38.4906 24.325 41.5733 34.2247C41.711 34.6243 41.8102 35.011 41.8646 35.3882C41.9223 35.7654 41.9383 36.1107 41.9191 36.4175C41.8999 36.7244 41.839 36.9801 41.743 37.1847C41.647 37.3861 41.5157 37.5075 41.3492 37.5459C40.0752 37.8496 39.4381 37.9998 38.164 38.3003C37.9752 38.345 37.7799 38.2396 37.5846 37.987C37.3861 37.7345 37.2165 37.3733 37.0756 36.9098C36.7971 35.7878 36.6563 35.2252 36.3746 34.1032C36.2849 33.8475 36.1793 33.6525 36.064 33.5183C35.9488 33.3808 35.8335 33.3297 35.7215 33.3584C34.918 33.5694 34.5178 33.6781 33.7143 33.8987C33.6087 33.9274 33.5319 34.0265 33.4871 34.1959C33.4422 34.3653 33.4326 34.5763 33.455 34.8256C33.6855 35.9796 33.8008 36.555 34.0313 37.7057C34.0985 38.1628 34.0985 38.5432 34.0313 38.8469C33.964 39.1506 33.836 39.3232 33.6439 39.3679C32.4531 39.646 31.8576 39.7835 30.6636 40.0584L30.6668 40.0648ZM33.263 25.8082C33.3142 25.7922 33.3558 25.7539 33.3846 25.6931C33.4166 25.6324 33.4358 25.5557 33.4422 25.4662C33.4486 25.3767 33.4422 25.2744 33.4294 25.1593C33.4134 25.0442 33.3846 24.9291 33.3462 24.8141C32.5939 22.1098 32.2194 20.7609 31.4639 18.0662C31.4031 17.8872 31.3422 17.7561 31.2814 17.6794C31.2206 17.5995 31.1662 17.5707 31.1246 17.5867C31.0797 17.6027 31.0477 17.6634 31.0317 17.7721C31.0125 17.8808 31.0157 18.031 31.0349 18.2228C31.5151 20.9942 31.7552 22.3783 32.2386 25.1337C32.2514 25.2648 32.277 25.3831 32.3122 25.4917C32.3474 25.6004 32.3858 25.6931 32.4307 25.7698C32.4755 25.8466 32.5267 25.9041 32.5779 25.9424C32.6323 25.9808 32.6867 25.9904 32.738 25.9744C32.946 25.9073 33.0517 25.8753 33.2598 25.8082H33.263Z" fill="#FF2A00"/>
<path d="M50.3604 10.5192C50.4437 11.1042 50.4373 11.5357 50.3348 11.8138C50.2324 12.0919 50.0467 12.2326 49.7746 12.2358C48.094 12.2549 47.2553 12.2933 45.5778 12.434C45.3793 12.4499 45.2065 12.3476 45.0624 12.1207C44.9152 11.8937 44.8063 11.5549 44.7295 11.1042C44.5534 10.0685 44.467 9.55067 44.2909 8.51499C44.2621 8.34877 44.2205 8.21451 44.1693 8.10903C44.1149 8.00354 44.0444 7.92043 43.9548 7.86929C43.8684 7.81495 43.7595 7.78298 43.6379 7.77019C43.5162 7.75741 43.3722 7.75741 43.2057 7.77019C43.0392 7.78298 42.8984 7.81175 42.7831 7.84371C42.6679 7.87888 42.5751 7.93002 42.511 7.99715C42.447 8.06428 42.4054 8.15698 42.3862 8.27205C42.3702 8.38713 42.3734 8.52458 42.4022 8.6908C42.6551 10.1101 42.7799 10.8229 43.0328 12.2422C43.1033 12.6353 43.2313 12.9646 43.4234 13.2299C43.6123 13.4952 43.846 13.7222 44.1245 13.914C44.403 14.1057 44.7135 14.272 45.0656 14.4158C45.4145 14.5628 45.7859 14.7131 46.1732 14.8761C46.5606 15.0359 46.9639 15.2149 47.3769 15.4099C47.7931 15.6049 48.1996 15.8479 48.603 16.1355C49.0063 16.4232 49.3969 16.7653 49.7746 17.1584C50.1524 17.5516 50.5013 18.0279 50.8182 18.5841C51.1351 19.1403 51.4168 19.7828 51.6569 20.5148C51.9002 21.2468 52.0891 22.0939 52.2267 23.0593C52.4636 24.7055 52.5821 25.527 52.819 27.1732C52.9438 28.0331 53.0238 28.829 53.0591 29.5674C53.0975 30.3058 53.0751 30.9899 52.9918 31.6196C52.9118 32.2493 52.7613 32.8247 52.5501 33.3457C52.3356 33.8668 52.0379 34.3335 51.6569 34.749C51.276 35.1646 50.799 35.5226 50.2324 35.8231C49.6658 36.1235 48.9839 36.3697 48.19 36.5583C47.3929 36.7469 46.6822 36.8236 46.0516 36.7788C45.421 36.7341 44.8575 36.5902 44.3581 36.3441C43.862 36.098 43.4202 35.7655 43.0424 35.3404C42.6615 34.9152 42.3286 34.4198 42.0373 33.854C41.7492 33.2882 41.4995 32.6585 41.2882 31.9648C41.0769 31.2712 40.8944 30.536 40.7376 29.7592C40.5327 28.7363 40.427 28.2217 40.2222 27.1988C40.0973 26.5723 40.0653 26.0864 40.1357 25.7348C40.203 25.3832 40.363 25.1786 40.6127 25.1242C42.1941 24.7662 42.988 24.6032 44.5854 24.3091C44.7743 24.274 44.9376 24.3666 45.0752 24.584C45.2129 24.8014 45.3217 25.1402 45.4049 25.6037C45.5906 26.649 45.6835 27.17 45.8659 28.2121C45.8947 28.3783 45.9363 28.5126 45.9876 28.6117C46.0388 28.7108 46.106 28.7843 46.186 28.8354C46.2661 28.8866 46.3621 28.9121 46.471 28.9153C46.583 28.9153 46.711 28.9025 46.8615 28.8738C47.0088 28.845 47.1336 28.8098 47.236 28.7651C47.3385 28.7235 47.4185 28.6628 47.4761 28.5861C47.5338 28.5094 47.5722 28.4167 47.585 28.3048C47.5978 28.1929 47.5914 28.0555 47.5626 27.8892C47.3257 26.4796 47.204 25.7731 46.9671 24.3635C46.8999 23.9735 46.7783 23.6474 46.599 23.3853C46.4197 23.1232 46.1988 22.9026 45.9331 22.7204C45.6674 22.5382 45.3697 22.3816 45.0336 22.2505C44.7007 22.1195 44.3453 21.9852 43.9708 21.8478C43.5963 21.7103 43.2057 21.5601 42.8024 21.3939C42.399 21.2308 41.9956 21.0199 41.5923 20.7641C41.1921 20.5084 40.7952 20.1984 40.4078 19.8308C40.0205 19.4632 39.6524 19.006 39.3034 18.4594C38.9545 17.9128 38.6376 17.2639 38.3463 16.5127C38.0549 15.7616 37.8085 14.8761 37.6004 13.8564C37.2514 12.1175 37.0754 11.2512 36.7264 9.51231C36.544 8.61408 36.4191 7.767 36.3519 6.98065C36.2847 6.1911 36.2879 5.46229 36.3679 4.79101C36.4479 4.12294 36.608 3.5124 36.8513 2.96579C37.0946 2.41918 37.4371 1.9365 37.8757 1.52415C38.3142 1.11179 38.8649 0.779352 39.5211 0.536415C40.1806 0.293477 40.9617 0.136846 41.8676 0.0857018C42.7703 0.0345571 43.5899 0.108078 44.3165 0.290281C45.0464 0.472484 45.6963 0.74419 46.2661 1.09901C46.8359 1.45382 47.3321 1.87896 47.7514 2.37123C48.1708 2.8635 48.5261 3.40691 48.8238 3.99827C49.1184 4.59283 49.3617 5.22574 49.5473 5.90022C49.7362 6.57469 49.8803 7.27793 49.9891 8.01633C50.1331 9.02324 50.2068 9.5251 50.3508 10.5288L50.3604 10.5192Z" fill="#FF2A00"/>
<path d="M61.5586 4.02373C61.8627 4.1516 62.1028 4.39134 62.2852 4.73337C62.4677 5.07859 62.583 5.51332 62.6342 6.04715C62.7462 7.21069 62.8006 7.79246 62.9127 8.956C62.9639 9.48343 62.9255 9.86062 62.8006 10.0908C62.6758 10.3209 62.4677 10.3944 62.1732 10.3081C61.4561 10.0972 61.0944 9.99807 60.3677 9.81267C60.1372 9.75514 59.974 9.82546 59.8779 10.03C59.7819 10.2314 59.7595 10.5607 59.8075 11.0146C60.5182 17.6922 61.2256 24.3665 61.9363 31.0441C61.9971 31.6099 61.9747 32.0542 61.8723 32.3835C61.7698 32.7127 61.5874 32.9045 61.3281 32.962C59.974 33.2529 59.2953 33.4 57.9412 33.7036C57.6819 33.7612 57.461 33.6429 57.2849 33.3488C57.1057 33.0547 56.9776 32.5944 56.8976 31.9775C55.9628 24.6958 55.0313 17.4141 54.0965 10.1291C54.0325 9.63686 53.9269 9.25648 53.77 8.99116C53.6163 8.72585 53.4179 8.57881 53.1778 8.55324C52.4319 8.47652 52.0606 8.44775 51.3147 8.3998C51.0138 8.38062 50.7577 8.19842 50.5496 7.85319C50.3415 7.50797 50.191 7.0125 50.1014 6.37319C49.8997 4.96032 49.7973 4.25388 49.5956 2.84101C49.5028 2.19211 49.5156 1.70944 49.634 1.39298C49.7525 1.07652 49.9702 0.939069 50.2839 0.980624C54.1574 1.49207 57.9572 2.52136 61.5586 4.02693V4.02373Z" fill="#FF2A00"/>
<path d="M62.9669 6.18784C62.9157 5.65721 62.9573 5.28961 63.0886 5.08823C63.2198 4.88684 63.4311 4.85807 63.7256 4.99872C65.2718 5.74671 66.0337 6.16227 67.5191 7.07008C67.804 7.24589 68.0313 7.50162 68.1977 7.82766C68.3642 8.15371 68.4666 8.54049 68.5051 8.9944C69.0909 15.9117 69.6799 22.8291 70.2657 29.7432C70.3041 30.1907 70.2657 30.5423 70.1505 30.8044C70.0352 31.0665 69.8496 31.2232 69.5903 31.2743C68.2393 31.5332 67.5639 31.6675 66.2098 31.9392C65.9537 31.9903 65.7424 31.8944 65.5823 31.6451C65.4191 31.3958 65.3134 31.009 65.2654 30.4848C64.5003 22.3847 63.7352 14.2847 62.9669 6.18464V6.18784Z" fill="#FF2A00"/>
<path d="M74.7442 30.5231C74.1424 30.5391 73.6142 30.4911 73.1596 30.3697C72.705 30.2482 72.3209 30.0564 72.0007 29.7879C71.6838 29.5226 71.4181 29.1901 71.2036 28.797C70.9892 28.4038 70.8259 27.9499 70.7074 27.4384C70.589 26.927 70.5058 26.3644 70.4546 25.7602C70.1024 21.5887 69.7471 17.4205 69.3949 13.249C69.3437 12.6448 69.3341 12.1014 69.3693 11.6283C69.4046 11.1552 69.4974 10.7684 69.651 10.4712C69.8047 10.1739 70.0224 9.9725 70.3041 9.87661C70.5858 9.77752 70.9475 9.79989 71.3861 9.95013C71.8247 10.1004 72.3433 10.3817 72.9323 10.8036C73.5245 11.2256 74.2032 11.7977 74.9555 12.5361C75.711 13.2745 76.3576 14.0002 76.9146 14.6714C77.4684 15.3427 77.9454 15.9788 78.3488 16.551C78.7521 17.1264 79.0914 17.6506 79.3731 18.1173C79.6549 18.584 79.8885 19.0027 80.0806 19.3735C80.2727 19.7475 80.4263 20.08 80.5416 20.3805C80.6568 20.6809 80.7465 20.9622 80.8105 21.2275C80.8937 21.5855 80.9385 21.7646 81.0218 22.1226C81.0634 22.3048 81.041 22.4007 80.9514 22.4135C80.8617 22.4262 80.7049 22.3559 80.4872 22.1993C79.1683 21.2531 78.4864 20.8152 77.0811 20.0001C76.9114 19.901 76.777 19.7731 76.6745 19.6101C76.5721 19.4471 76.5081 19.2553 76.4824 19.0443C76.4152 18.4657 76.3832 18.1748 76.316 17.5963C76.3032 17.4844 76.2776 17.3853 76.2392 17.2958C76.2007 17.2063 76.1431 17.1136 76.0695 17.0241C75.9959 16.9346 75.903 16.8419 75.7846 16.7428C75.6693 16.6469 75.5285 16.5382 75.362 16.4199C75.1956 16.3017 75.0579 16.209 74.9427 16.1418C74.8306 16.0747 74.7378 16.0395 74.6738 16.0332C74.6065 16.0268 74.5617 16.0491 74.5361 16.1035C74.5105 16.1578 74.5041 16.2473 74.5169 16.372C74.8242 19.5014 75.1315 22.634 75.4389 25.7634C75.4517 25.8881 75.4773 25.9904 75.5189 26.0671C75.5605 26.1438 75.6181 26.2046 75.6917 26.2493C75.7686 26.2941 75.8646 26.326 75.9831 26.3484C76.1015 26.3708 76.2456 26.3868 76.412 26.3963C76.5817 26.4059 76.7225 26.4091 76.8378 26.4027C76.953 26.3963 77.0459 26.3772 77.1131 26.3484C77.1803 26.3164 77.2251 26.2685 77.2507 26.2046C77.2763 26.1406 77.2828 26.0543 77.27 25.9424C77.2027 25.3639 77.1707 25.073 77.1035 24.4944C77.0779 24.277 77.1035 24.1236 77.1867 24.0373C77.2667 23.951 77.3916 23.9318 77.5613 23.9798C78.989 24.3665 79.6933 24.5839 81.0698 25.057C81.3003 25.1369 81.486 25.2488 81.6268 25.3862C81.7677 25.5237 81.8605 25.6835 81.9053 25.8689C81.9885 26.2269 82.0334 26.4059 82.1166 26.764C82.1806 27.0325 82.203 27.2754 82.1838 27.5024C82.1646 27.7293 82.091 27.9403 81.9597 28.1385C81.8285 28.3398 81.6364 28.5316 81.3771 28.7202C81.1178 28.9088 80.7817 29.0942 80.3687 29.2732C79.9526 29.4522 79.4532 29.6313 78.8674 29.8007C78.2815 29.9701 77.5997 30.1363 76.8186 30.277C76.0407 30.4208 75.3492 30.5071 74.7474 30.5231H74.7442Z" fill="#FF2A00"/>
<path d="M91.173 31.1107L84.4024 20.0698L90.4848 49.478L86.2303 55.0912C85.6669 56.4273 84.6777 57.5365 83.4133 58.2493L78 61.3052L82.8018 62.2642L86.8898 68.1618C87.9686 69.7185 89.5756 70.8277 91.4163 71.288L93.5035 71.8091C94.4159 72.036 95.3826 71.7867 96.0709 71.1474L99.7683 67.7015L97.2073 65.4639L94.5823 67.6088C94.0381 68.0531 93.2794 68.1395 92.652 67.823L91.125 67.0622L90.1646 53.3171L92.7736 51.0827C93.6572 50.3251 95.0305 50.7215 95.373 51.8339L97.2073 57.7922V65.1443L99.7683 67.7015L100.729 60.6691L95.4178 40.9688C94.4831 37.4974 93.0521 34.1794 91.173 31.1107Z" fill="#FF2A00"/>
</svg>
