<?xml version="1.0" encoding="UTF-8"?><svg id="Layer_1" xmlns="http://www.w3.org/2000/svg" width="101" height="91" viewBox="0 0 101 91"><defs><style>.cls-1{fill:#346332;stroke:#346332;stroke-miterlimit:10;stroke-width:.25px;}</style></defs><path class="cls-1" d="M2.13,55.1c1.28,4.16-4.16,26.21-1.28,29.73,2.88,3.52,1.6,6.39,5.12,6.07,3.52-.32,5.76-1.6,6.72-1.6.14,0,.2-.09.21-.25l-1.81-4.22s-1.28,1.6-2.56,1.28c-1.28-.32.64-5.43.64-5.43l-1.6-4.79.32-5.43,4.16-6.39,2.88,7.03-.32,8.63-3.52,5.11s1.88,3.28,1.81,4.22l.11.25,1.92-.32,3.84-6.71,2.88-8.31-1.6-7.67-5.12-3.52-6.33-3.39c-1.63-1.06-2.54-2.93-2.38-4.86l.1-12.26c-3.56,5.46-5.29,9.27-4.19,12.84h0Z"/><path class="cls-1" d="M11.55,59.33c-.66-.5-1.23-.97-1.71-1.41-.48-.44-.88-.85-1.2-1.22-.32-.37-.58-.72-.78-1.04-.2-.32-.35-.61-.44-.89-.09-.28-.15-.55-.17-.82-.15-2.21-.22-3.31-.37-5.53-.02-.27,0-.51.07-.74.06-.23.18-.45.36-.65.18-.2.42-.4.72-.59.3-.19.69-.38,1.15-.56.46-.18,1.01-.36,1.65-.54.63-.17,1.37-.34,2.21-.5.84-.15,1.58-.25,2.22-.29.64-.04,1.2,0,1.68.08.48.09.88.25,1.21.47.33.22.6.5.82.84.21.34.37.73.48,1.17.11.44.18.93.21,1.46.04.71.07,1.06.11,1.77.02.36-.03.64-.16.82-.13.18-.33.26-.6.25-1.63-.11-2.44-.18-4.05-.35-.19-.02-.35-.1-.45-.22-.11-.12-.17-.29-.18-.51-.03-.58-.05-.88-.08-1.46,0-.11-.03-.2-.07-.27-.04-.07-.1-.12-.18-.16-.08-.04-.19-.06-.31-.07-.13,0-.28-.02-.47-.02s-.34,0-.47.02c-.12.01-.23.04-.3.07-.08.04-.13.08-.16.14-.03.06-.05.14-.04.24.16,3.05.24,4.57.39,7.62,0,.1.03.19.07.27.04.08.1.15.18.22.08.07.19.14.32.21.13.07.29.15.48.23.19.08.35.15.48.19.13.04.24.06.32.06.08,0,.13-.03.17-.08.03-.05.05-.13.04-.25-.03-.58-.05-.88-.08-1.46-.01-.22.03-.37.13-.45.1-.08.25-.09.44-.04,1.64.48,2.46.7,4.13,1.09.28.06.5.2.65.43.16.22.25.52.27.88.04.71.07,1.06.11,1.77.04.53.02,1.01-.04,1.43-.06.42-.18.77-.36,1.05-.18.28-.44.48-.76.6-.32.12-.73.14-1.23.07-.5-.08-1.09-.26-1.76-.54-.68-.29-1.46-.7-2.34-1.23-.88-.53-1.65-1.06-2.3-1.55h0Z"/><path class="cls-1" d="M27.16,43.91c-.04-.48,0-.85.12-1.13.12-.27.32-.44.6-.5,1.45-.3,2.18-.45,3.63-.77.28-.06.51.03.68.27.17.24.29.62.35,1.15.87,8.03,1.74,16.06,2.61,24.09.06.52.02.9-.12,1.15-.13.24-.37.34-.69.27-1.66-.32-2.49-.51-4.15-.95-.31-.08-.57-.27-.75-.57-.19-.29-.3-.68-.34-1.15-.28-3.2-.43-4.79-.71-7.99-.02-.27-.09-.48-.19-.62-.1-.14-.23-.23-.4-.24-.36-.04-.54-.05-.9-.1-.17-.02-.29.03-.37.15-.08.12-.11.31-.09.57.25,3.07.38,4.61.63,7.68.04.45-.02.77-.16.96-.14.19-.37.23-.69.12-1.63-.55-2.44-.85-4.05-1.51-.3-.12-.54-.33-.72-.6-.17-.27-.27-.6-.3-.99-.39-6.04-.79-12.08-1.18-18.11-.03-.4.03-.71.16-.94.13-.23.34-.38.61-.43,1.45-.28,2.17-.42,3.62-.71.28-.05.5.02.66.22.16.21.27.54.3,1,.21,2.58.32,3.87.53,6.46.02.26.08.45.18.58.1.13.23.2.39.2.35,0,.52,0,.88,0,.17,0,.28-.07.36-.21.07-.14.1-.35.07-.61-.24-2.69-.36-4.03-.6-6.72h0Z"/><path class="cls-1" d="M36.72,68.86c-.2-.03-.39-.13-.57-.29-.18-.16-.32-.35-.44-.59-.12-.24-.21-.5-.26-.79-.06-.29-.07-.59-.04-.9.34-8.04.54-16.07.63-24.11.02-.3.05-.57.11-.79.05-.22.11-.41.19-.56.08-.15.17-.27.27-.35.11-.08.22-.14.35-.17,1.81-.4,2.71-.6,4.52-1.01.13-.03.26-.03.38,0,.12.04.24.11.36.23.12.12.22.27.33.47.11.2.21.45.31.75,2.42,8.65,4.91,17.29,7.47,25.9.12.35.2.69.23,1.02.03.33.02.62-.04.88-.05.26-.15.47-.28.63-.13.16-.3.25-.5.26-1.54.1-2.31.12-3.87.12-.23,0-.45-.12-.64-.37-.2-.25-.35-.57-.44-.98-.17-.97-.25-1.45-.42-2.42-.07-.22-.16-.41-.28-.54-.11-.13-.24-.2-.37-.2-.95,0-1.42,0-2.37-.03-.12,0-.23.05-.31.18-.08.12-.12.28-.13.49.08.97.12,1.45.2,2.42,0,.38-.06.67-.19.89-.13.22-.31.31-.54.29-1.46-.14-2.18-.23-3.64-.45h0ZM42,58.46c.06,0,.11-.03.15-.07.04-.04.07-.1.09-.17.02-.07.03-.16.03-.25,0-.1-.02-.19-.04-.3-.46-2.34-.69-3.5-1.15-5.82-.04-.16-.09-.27-.14-.35-.05-.08-.1-.11-.15-.11-.05,0-.09.05-.12.13-.03.08-.05.2-.05.37.15,2.33.23,3.5.37,5.81,0,.11,0,.21.03.3.02.09.05.18.09.25.04.07.08.13.14.17.05.04.11.06.17.06.24,0,.36-.02.59-.03h0Z"/><path class="cls-1" d="M52.18,69.25c-.14.02-.28-.02-.42-.1-.13-.08-.26-.2-.37-.35-.11-.15-.21-.35-.3-.58-.09-.23-.15-.48-.19-.74-1.46-9.13-2.91-18.26-4.37-27.38-.04-.27-.06-.53-.05-.77,0-.24.04-.45.09-.63.05-.18.12-.33.21-.45.09-.12.2-.19.33-.22,1.33-.3,1.99-.46,3.32-.76.18-.04.36.02.54.18.18.16.33.4.46.72,1.37,3.08,2.76,6.14,4.18,9.19.06.12.12.2.18.24.06.03.11.03.15-.02.04-.04.07-.12.08-.23,0-.11,0-.25-.03-.42-.65-3.43-.98-5.14-1.63-8.57-.05-.27-.08-.53-.08-.77s.02-.46.07-.65c.04-.19.12-.34.2-.46.09-.12.2-.19.33-.22,1.32-.3,1.97-.45,3.29-.74.13-.03.26,0,.38.06.12.07.24.18.35.32.11.14.21.33.3.54.09.22.16.46.21.73,1.8,9.06,3.6,18.12,5.41,27.19.05.26.08.52.08.77s-.02.47-.07.66c-.05.19-.12.35-.21.49-.09.13-.21.22-.34.27-1.41.5-2.13.72-3.57,1.11-.19.05-.38,0-.57-.14-.19-.14-.35-.37-.49-.67-1.44-2.78-2.85-5.57-4.24-8.37-.07-.16-.14-.26-.21-.31-.07-.05-.12-.05-.17,0-.04.04-.07.13-.08.27,0,.13,0,.31.04.51.59,3.07.89,4.61,1.48,7.68.05.28.08.54.07.79s-.04.46-.09.65c-.06.19-.14.35-.24.47-.1.12-.22.19-.37.22-1.45.25-2.18.35-3.65.51h0Z"/><path class="cls-1" d="M74.24,41.12c.09.39.08.72-.01.98-.09.27-.28.45-.55.56-1.51.59-2.28.88-3.82,1.43-.19.07-.35.02-.5-.15-.14-.16-.26-.44-.34-.82-.22-1.04-.33-1.55-.55-2.59-.04-.2-.09-.35-.16-.46-.06-.11-.14-.19-.23-.23-.09-.04-.2-.06-.34-.04-.13.02-.29.05-.47.1-.18.05-.34.11-.46.17-.12.06-.21.13-.28.22-.06.09-.1.2-.11.34,0,.13,0,.3.05.5,1.08,5.09,2.15,10.17,3.22,15.26.04.2.1.35.16.46.06.11.14.17.23.2.1.03.21.02.35-.02.14-.04.31-.11.5-.2.2-.1.36-.19.48-.28.12-.09.22-.19.29-.29.07-.11.11-.23.11-.36,0-.14,0-.3-.05-.5-.28-1.33-.43-1.99-.71-3.32-.03-.14-.07-.24-.12-.3-.05-.06-.11-.07-.18-.04-.14.06-.21.1-.36.16-.17.08-.32.04-.44-.09-.12-.13-.21-.37-.29-.72-.24-1.12-.36-1.68-.6-2.8-.11-.5-.12-.9-.05-1.21s.23-.51.48-.59c1.86-.7,2.78-1.07,4.59-1.85.27-.12.5-.07.7.13.2.2.35.56.46,1.07.62,2.85.93,4.28,1.55,7.13.15.7.26,1.37.31,2.02.06.65.05,1.27-.02,1.88-.07.61-.2,1.21-.41,1.79-.2.58-.5,1.15-.88,1.71-.38.55-.86,1.1-1.44,1.62-.58.52-1.28,1.03-2.1,1.49-.82.46-1.57.78-2.24.96-.67.18-1.28.23-1.82.16-.54-.07-1.01-.25-1.42-.55-.41-.29-.77-.68-1.08-1.17-.31-.48-.57-1.05-.79-1.72-.22-.66-.41-1.4-.57-2.21-1.12-5.57-2.23-11.15-3.35-16.72-.16-.81-.27-1.57-.33-2.28-.06-.71-.05-1.37.03-1.97.08-.6.23-1.16.46-1.66.23-.5.55-.94.96-1.33.41-.39.93-.72,1.54-1,.61-.28,1.34-.51,2.18-.69.85-.18,1.61-.26,2.28-.26.67,0,1.27.08,1.8.24.53.16.99.39,1.39.7.4.31.74.68,1.04,1.12.29.44.55.95.76,1.52.21.58.39,1.21.54,1.91.22,1.04.34,1.55.56,2.59h.01Z"/><path class="cls-1" d="M79.4,58.03c-.24.2-.46.22-.65.06-.19-.16-.34-.49-.44-.99-1.68-7.74-3.37-15.48-5.05-23.21-.11-.51-.12-.9-.03-1.2.09-.29.28-.46.55-.52,2.95-.6,5.91-1.16,8.88-1.69.28-.05.52.01.7.18.18.17.31.44.38.82.15.82.23,1.23.38,2.05.07.37.05.68-.05.93-.1.25-.28.42-.55.52-1.39.51-2.09.76-3.5,1.25-.2.07-.34.21-.41.43-.07.21-.07.49,0,.83.15.7.22,1.05.36,1.74.07.34.18.57.32.7.14.13.31.15.51.05,1.22-.58,1.82-.89,3.01-1.5.25-.13.46-.13.63,0,.17.13.28.38.36.76.13.7.2,1.04.33,1.74.07.38.06.72-.02,1.01-.08.29-.24.53-.48.7-1.12.82-1.69,1.21-2.85,1.97-.19.12-.31.3-.37.54-.06.24-.06.53.02.88.19.9.28,1.34.47,2.23.07.34.17.56.31.66.13.1.29.08.47-.07,1.3-1.08,1.93-1.64,3.15-2.83.22-.21.41-.28.56-.2.15.08.26.3.33.68.15.82.22,1.22.37,2.04.07.37.07.72,0,1.05-.07.33-.2.64-.41.9-2.32,2.76-4.57,5.08-7.26,7.49h0Z"/><path class="cls-1" d="M10.69,20.22c.45-.87.88-1.55,1.29-2.06.41-.5.79-.85,1.15-1.05.36-.19.69-.25.99-.16.3.09.58.3.83.63.25.33.49.77.7,1.33.21.55.41,1.2.6,1.94.52,2.07.78,3.1,1.31,5.18.19.74.33,1.44.42,2.09.09.65.12,1.27.09,1.84-.03.58-.13,1.12-.29,1.61-.16.5-.41.97-.73,1.42-.32.44-.73.86-1.22,1.27-.49.4-1.06.79-1.72,1.19-.15.09-.23.14-.38.23-.12.07-.2.19-.24.35-.04.16-.04.36.02.59.48,2.22.71,3.32,1.19,5.54.09.42.09.76,0,1.01-.09.25-.27.4-.53.45-1.38.27-2.07.4-3.45.65-.26.05-.47,0-.63-.15-.16-.14-.26-.37-.29-.7-.61-4.98-1.22-9.97-1.82-14.95-.04-.33-.04-.66,0-1.01.03-.35.1-.7.2-1.04.83-2.65,1.35-3.89,2.55-6.2h0ZM12.47,25.36c-.03-.14-.07-.23-.11-.29-.04-.06-.09-.09-.14-.08-.05,0-.11.04-.17.1-.06.06-.13.15-.21.25-.14.19-.21.29-.36.49-.08.11-.12.24-.14.39-.02.15,0,.32.03.51.31,1.46.47,2.2.79,3.66.04.19.09.3.16.36.07.05.14.04.23-.04.16-.15.24-.23.4-.38.09-.08.16-.17.23-.25.06-.08.11-.17.15-.26s.05-.19.06-.29c0-.11,0-.23-.04-.36-.35-1.52-.52-2.28-.87-3.8h0Z"/><path class="cls-1" d="M23.25,32.09c.13.6.28,1.04.46,1.3.18.27.38.36.59.27.95-.4,1.43-.59,2.4-.96.22-.09.42.02.6.3.18.29.34.75.47,1.4.29,1.4.43,2.1.72,3.5.13.64.17,1.14.13,1.51-.05.37-.18.58-.4.64-2.65.73-3.98,1.09-6.65,1.78-.22.06-.42-.04-.59-.3-.17-.25-.32-.65-.43-1.18-1.76-8.28-3.51-16.55-5.26-24.83-.12-.54-.16-1.01-.13-1.42.03-.41.13-.73.31-.97.91-1.24,1.4-1.83,2.41-2.92.2-.21.38-.21.55,0,.17.2.32.61.44,1.21,1.46,6.89,2.92,13.78,4.38,20.67h0Z"/><path class="cls-1" d="M30.67,40.06c-.17.04-.34,0-.51-.13-.17-.13-.33-.31-.47-.56-.14-.24-.27-.53-.37-.87-.11-.34-.18-.7-.21-1.09-1.36-9.93-2.69-19.86-3.96-29.8-.03-.38-.04-.71-.02-.99.01-.28.05-.52.1-.73.05-.2.13-.37.22-.5.09-.13.2-.23.33-.29,1.78-.93,2.7-1.34,4.59-2.03.14-.05.28-.06.41-.03.13.03.27.11.4.23.13.12.27.3.4.52.13.22.27.51.4.85,3.32,9.83,6.52,19.68,9.6,29.58.14.4.24.79.29,1.16.06.38.07.72.05,1.03-.02.31-.08.56-.18.77-.1.2-.23.32-.39.36-1.27.3-1.91.45-3.19.75-.19.04-.38-.06-.58-.31-.2-.25-.37-.61-.51-1.08-.28-1.12-.42-1.68-.7-2.81-.09-.26-.2-.45-.31-.58-.12-.14-.23-.19-.34-.16-.8.21-1.2.32-2.01.54-.11.03-.18.13-.23.3-.04.17-.05.38-.03.63.23,1.15.35,1.73.58,2.88.07.46.07.84,0,1.14-.07.3-.2.48-.39.52-1.19.28-1.79.42-2.98.69h0ZM33.26,25.81c.05-.02.09-.05.12-.12.03-.06.05-.14.06-.23s0-.19-.01-.31c-.02-.12-.04-.23-.08-.35-.75-2.7-1.13-4.05-1.88-6.75-.06-.18-.12-.31-.18-.39-.06-.08-.12-.11-.16-.09-.04.02-.08.08-.09.19-.02.11-.02.26,0,.45.48,2.77.72,4.16,1.2,6.91.01.13.04.25.07.36.04.11.07.2.12.28.04.08.1.13.15.17.05.04.11.05.16.03.21-.07.31-.1.52-.17h0Z"/><path class="cls-1" d="M50.36,10.52c.08.59.08,1.02-.03,1.29-.1.28-.29.42-.56.42-1.68.02-2.52.06-4.2.2-.2.02-.37-.09-.52-.31-.15-.23-.26-.57-.33-1.02-.18-1.04-.26-1.55-.44-2.59-.03-.17-.07-.3-.12-.41-.05-.11-.12-.19-.21-.24-.09-.05-.2-.09-.32-.1-.12-.01-.27-.01-.43,0-.17.01-.31.04-.42.07-.12.04-.21.09-.27.15-.06.07-.11.16-.12.27-.02.12-.01.25.02.42.25,1.42.38,2.13.63,3.55.07.39.2.72.39.99.19.27.42.49.7.68.28.19.59.36.94.5.35.15.72.3,1.11.46.39.16.79.34,1.2.53.42.2.82.44,1.23.73.4.29.79.63,1.17,1.02.38.39.73.87,1.04,1.43.32.56.6,1.2.84,1.93.24.73.43,1.58.57,2.54.24,1.65.36,2.47.59,4.11.12.86.2,1.66.24,2.39.04.74.02,1.42-.07,2.05-.08.63-.23,1.21-.44,1.73-.21.52-.51.99-.89,1.4-.38.42-.86.77-1.42,1.07-.57.3-1.25.55-2.04.74-.8.19-1.51.27-2.14.22-.63-.04-1.19-.19-1.69-.43-.5-.25-.94-.58-1.32-1-.38-.43-.71-.92-1.01-1.49-.29-.57-.54-1.2-.75-1.89-.21-.69-.39-1.43-.55-2.21-.2-1.02-.31-1.54-.52-2.56-.12-.63-.16-1.11-.09-1.46.07-.35.23-.56.48-.61,1.58-.36,2.38-.52,3.97-.82.19-.04.35.06.49.27.14.22.25.56.33,1.02.19,1.05.28,1.57.46,2.61.03.17.07.3.12.4.05.1.12.17.2.22.08.05.18.08.28.08.11,0,.24-.01.39-.04.15-.03.27-.06.37-.11.1-.04.18-.1.24-.18.06-.08.1-.17.11-.28.01-.11,0-.25-.02-.42-.24-1.41-.36-2.12-.6-3.53-.07-.39-.19-.72-.37-.98-.18-.26-.4-.48-.67-.66-.27-.18-.56-.34-.9-.47-.33-.13-.69-.27-1.06-.4-.37-.14-.77-.29-1.17-.45-.4-.16-.81-.37-1.21-.63-.4-.26-.8-.57-1.18-.93-.39-.37-.76-.82-1.1-1.37-.35-.55-.67-1.2-.96-1.95-.29-.75-.54-1.64-.75-2.66-.35-1.74-.52-2.61-.87-4.34-.18-.9-.31-1.75-.37-2.53-.07-.79-.06-1.52.02-2.19.08-.67.24-1.28.48-1.83.24-.55.59-1.03,1.02-1.44.44-.41.99-.74,1.65-.99.66-.24,1.44-.4,2.35-.45.9-.05,1.72.02,2.45.2.73.18,1.38.45,1.95.81.57.35,1.07.78,1.49,1.27.42.49.77,1.04,1.07,1.63.29.59.54,1.23.72,1.9.19.67.33,1.38.44,2.12.14,1.01.22,1.51.36,2.51h0Z"/><path class="cls-1" d="M61.56,4.02c.3.13.54.37.73.71.18.35.3.78.35,1.31.11,1.16.17,1.75.28,2.91.05.53.01.9-.11,1.13-.12.23-.33.3-.63.22-.72-.21-1.08-.31-1.81-.5-.23-.06-.39.01-.49.22-.1.2-.12.53-.07.98.71,6.68,1.42,13.35,2.13,20.03.06.57.04,1.01-.06,1.34-.1.33-.28.52-.54.58-1.35.29-2.03.44-3.39.74-.26.06-.48-.06-.66-.35-.18-.29-.31-.75-.39-1.37-.93-7.28-1.87-14.56-2.8-21.85-.06-.49-.17-.87-.33-1.14-.15-.27-.35-.41-.59-.44-.75-.08-1.12-.11-1.86-.15-.3-.02-.56-.2-.77-.55-.21-.35-.36-.84-.45-1.48-.2-1.41-.3-2.12-.51-3.53-.09-.65-.08-1.13.04-1.45.12-.32.34-.45.65-.41,3.87.51,7.67,1.54,11.27,3.05h0Z"/><path class="cls-1" d="M62.97,6.19c-.05-.53,0-.9.12-1.1.13-.2.34-.23.64-.09,1.55.75,2.31,1.16,3.79,2.07.28.18.51.43.68.76.17.33.27.71.31,1.17.59,6.92,1.17,13.83,1.76,20.75.04.45,0,.8-.12,1.06-.12.26-.3.42-.56.47-1.35.26-2.03.39-3.38.66-.26.05-.47-.04-.63-.29-.16-.25-.27-.64-.32-1.16-.77-8.1-1.53-16.2-2.3-24.3h0Z"/><path class="cls-1" d="M74.74,30.52c-.6.02-1.13-.03-1.58-.15-.45-.12-.84-.31-1.16-.58-.32-.27-.58-.6-.8-.99-.21-.39-.38-.85-.5-1.36-.12-.51-.2-1.07-.25-1.68-.35-4.17-.71-8.34-1.06-12.51-.05-.6-.06-1.15-.03-1.62.04-.47.13-.86.28-1.16.15-.3.37-.5.65-.59.28-.1.64-.08,1.08.07.44.15.96.43,1.55.85.59.42,1.27.99,2.02,1.73.76.74,1.4,1.46,1.96,2.14.55.67,1.03,1.31,1.43,1.88.4.58.74,1.1,1.02,1.57.28.47.52.89.71,1.26.19.37.35.71.46,1.01.12.3.2.58.27.85.08.36.13.54.21.9.04.18.02.28-.07.29-.09.01-.25-.06-.46-.21-1.32-.95-2-1.38-3.41-2.2-.17-.1-.3-.23-.41-.39-.1-.16-.17-.35-.19-.57-.07-.58-.1-.87-.17-1.45-.01-.11-.04-.21-.08-.3-.04-.09-.1-.18-.17-.27-.07-.09-.17-.18-.28-.28-.12-.1-.26-.2-.42-.32-.17-.12-.3-.21-.42-.28-.11-.07-.2-.1-.27-.11-.07,0-.11.02-.14.07-.03.05-.03.14-.02.27.31,3.13.61,6.26.92,9.39.01.12.04.23.08.3.04.08.1.14.17.18.08.04.17.08.29.1.12.02.26.04.43.05.17,0,.31.01.43,0,.12,0,.21-.03.28-.05.07-.03.11-.08.14-.14.03-.06.03-.15.02-.26-.07-.58-.1-.87-.17-1.45-.03-.22,0-.37.08-.46.08-.09.2-.11.37-.06,1.43.39,2.13.6,3.51,1.08.23.08.42.19.56.33.14.14.23.3.28.48.08.36.13.54.21.9.06.27.09.51.07.74-.02.23-.09.44-.22.64-.13.2-.32.39-.58.58-.26.19-.6.37-1.01.55-.42.18-.92.36-1.5.53-.59.17-1.27.34-2.05.48-.78.14-1.47.23-2.07.25h0Z"/><path class="cls-1" d="M91.17,31.11l-6.77-11.04,6.08,29.41-4.25,5.61c-.56,1.34-1.55,2.45-2.82,3.16l-5.41,3.06,4.8.96,4.09,5.9c1.08,1.56,2.69,2.67,4.53,3.13l2.09.52c.91.23,1.88-.02,2.57-.66l3.7-3.45-2.56-2.24-2.62,2.14c-.54.44-1.3.53-1.93.21l-1.53-.76-.96-13.75,2.61-2.23c.88-.76,2.26-.36,2.6.75l1.83,5.96v7.35l2.56,2.56.96-7.03-5.31-19.7c-.93-3.47-2.37-6.79-4.24-9.86Z"/></svg>