<svg width="74" height="63" viewBox="0 0 74 63" fill="none" xmlns="http://www.w3.org/2000/svg">
<g clip-path="url(#clip0_185_1113)">
<path d="M45.4854 38.8275H39.3818V37.8096C39.3818 36.6853 38.4689 35.7711 37.3464 35.7711C36.2238 35.7711 35.3109 36.6853 35.3109 37.8096V38.8275H30.2237C28.1166 38.8275 27.1719 35.2448 27.1719 31.694C27.1719 28.1432 28.1166 24.5605 30.2237 24.5605H35.3109V25.5785C35.3109 26.7027 36.2238 27.617 37.3464 27.617C38.4689 27.617 39.3818 26.7027 39.3818 25.5785V24.5605H45.4854C47.7305 24.5605 49.5537 26.3891 49.5537 28.6349V34.7478C49.5537 36.9963 47.7279 38.8222 45.4854 38.8222V38.8275ZM41.2872 36.789H45.4854C46.608 36.789 47.5209 35.8747 47.5209 34.7505V28.6376C47.5209 27.5133 46.608 26.5991 45.4854 26.5991H41.2872C40.8361 28.3559 39.2385 29.6555 37.3464 29.6555C35.4542 29.6555 33.8593 28.3559 33.4055 26.5991H30.3113C29.9583 26.8994 29.2073 28.6482 29.2073 31.694C29.2073 34.7398 29.9583 36.4887 30.3113 36.789H33.4055C33.8567 35.0322 35.4542 33.7325 37.3464 33.7325C39.2385 33.7325 40.8334 35.0322 41.2872 36.789Z" fill="#FF2A00"/>
<path d="M48.5372 28.6401H42.4336V30.6787H48.5372V28.6401Z" fill="#FF2A00"/>
<path d="M28.4617 35.771H25.1365C24.014 35.771 23.1011 34.8568 23.1011 33.7325V29.6581C23.1011 28.5339 24.014 27.6196 25.1365 27.6196H28.4617V29.6581H25.1365V33.7325H28.4617V35.771Z" fill="#FF2A00"/>
<path d="M36.9986 52.3902C25.7441 52.3902 16.5859 43.2182 16.5859 31.9466C16.5859 20.6749 25.7441 11.5029 36.9986 11.5029C48.2532 11.5029 57.4113 20.6749 57.4113 31.9466C57.4113 43.2182 48.2532 52.3902 36.9986 52.3902ZM36.9986 14.0571C27.1505 14.0571 19.1362 22.0809 19.1362 31.9466C19.1362 41.8122 27.1479 49.8361 36.9986 49.8361C46.8494 49.8361 54.8611 41.8122 54.8611 31.9466C54.8611 22.0809 46.8494 14.0571 36.9986 14.0571Z" fill="#FF2A00"/>
<path d="M29.7765 0.903043L27.6523 2.32129L31.4399 8.01124L33.564 6.59299L29.7765 0.903043Z" fill="#FF2A00"/>
<path d="M44.1825 0.957733L40.4185 6.6123L42.5426 8.03055L46.3066 2.37598L44.1825 0.957733Z" fill="#FF2A00"/>
<path d="M31.4306 55.8926L27.6431 61.5825L29.7672 63.0008L33.5548 57.3108L31.4306 55.8926Z" fill="#FF2A00"/>
<path d="M42.5416 55.862L40.4175 57.2803L44.2286 63.0056L46.3527 61.5874L42.5416 55.862Z" fill="#FF2A00"/>
<path d="M8.92983 58.7767C6.1142 58.7767 3.82666 56.4857 3.82666 53.6658V20.6934H6.37957V53.6658C6.37957 55.0744 7.52334 56.2225 8.93249 56.2225C10.3416 56.2225 11.4854 55.077 11.4854 53.6658V20.6934H14.0383V53.6658C14.0383 56.4857 11.7508 58.7767 8.93514 58.7767H8.92983Z" fill="#FF2A00"/>
<path d="M8.92989 23.0004C4.00717 23.0004 0 18.9872 0 14.0543V8.94343C0 4.01325 4.00717 0 8.92989 0C13.8526 0 17.8598 4.01325 17.8598 8.94343V14.0543C17.8598 18.9845 13.8526 22.9978 8.92989 22.9978V23.0004ZM8.92989 2.55678C5.41366 2.55678 2.55026 5.42187 2.55026 8.94609V14.057C2.55026 17.5786 5.41101 20.4463 8.92989 20.4463C12.4488 20.4463 15.3095 17.5812 15.3095 14.057V8.94609C15.3095 5.42453 12.4488 2.55678 8.92989 2.55678Z" fill="#FF2A00"/>
<path d="M7.65594 14.0543H5.10303V8.94336C5.10303 6.83042 6.82001 5.11084 8.92974 5.11084V7.66762C8.2265 7.66762 7.65329 8.2417 7.65329 8.94602V14.0569L7.65594 14.0543Z" fill="#FF2A00"/>
<path d="M65.0675 58.7767C62.2519 58.7767 59.9644 56.4857 59.9644 53.6658V20.696H62.5173V53.6658C62.5173 55.0744 63.661 56.2225 65.0702 56.2225C66.4793 56.2225 67.6231 55.077 67.6231 53.6658V20.6934H70.176V53.6658C70.176 56.4857 67.8885 58.7767 65.0728 58.7767H65.0675Z" fill="#FF2A00"/>
<path d="M65.0676 23.0004C60.1449 23.0004 56.1377 18.9872 56.1377 14.057V0H74.0001V14.0543C74.0001 18.9845 69.993 22.9978 65.0702 22.9978L65.0676 23.0004ZM58.688 2.55678V14.057C58.688 17.5786 61.5487 20.4463 65.0676 20.4463C68.5865 20.4463 71.4472 17.5812 71.4472 14.057V2.55678H58.688Z" fill="#FF2A00"/>
<path d="M63.7936 1.27832H61.2407V12.7785H63.7936V1.27832Z" fill="#FF2A00"/>
<path d="M68.8967 1.27832H66.3438V12.7785H68.8967V1.27832Z" fill="#FF2A00"/>
</g>
<defs>
<clipPath id="clip0_185_1113">
<rect width="74" height="63" fill="white"/>
</clipPath>
</defs>
</svg>
