<svg width="77" height="75" viewBox="0 0 77 75" fill="none" xmlns="http://www.w3.org/2000/svg">
<g clip-path="url(#clip0_185_1073)">
<path d="M77.0001 67.9202C73.5459 67.9202 71.7975 67.2219 70.1078 66.5475C68.5756 65.9344 67.1288 65.3587 64.1685 65.3587C61.2082 65.3587 59.7614 65.9371 58.2292 66.5475C56.5395 67.2219 54.7911 67.9202 51.337 67.9202C47.8828 67.9202 46.1344 67.2219 44.4447 66.5475C42.9125 65.9344 41.4657 65.3587 38.5054 65.3587C35.5451 65.3587 34.0983 65.9371 32.5661 66.5475C30.8764 67.2219 29.128 67.9202 25.6738 67.9202C22.2197 67.9202 20.4713 67.2219 18.7816 66.5475C17.2494 65.9344 15.8026 65.3587 12.8423 65.3587C9.88199 65.3587 8.4352 65.9371 6.903 66.5475C5.2133 67.2219 3.46488 67.9202 0.0107422 67.9202V65.356C2.97105 65.356 4.41784 64.7776 5.95004 64.1672C7.63974 63.4928 9.38816 62.7944 12.8423 62.7944C16.2964 62.7944 18.0449 63.4928 19.7346 64.1672C21.2668 64.7803 22.7135 65.356 25.6738 65.356C28.6342 65.356 30.0809 64.7776 31.6131 64.1672C33.3028 63.4928 35.0513 62.7944 38.5054 62.7944C41.9595 62.7944 43.708 63.4928 45.3977 64.1672C46.9299 64.7803 48.3767 65.356 51.337 65.356C54.2973 65.356 55.7441 64.7776 57.2763 64.1672C58.966 63.4928 60.7144 62.7944 64.1685 62.7944C67.6227 62.7944 69.3711 63.4928 71.0608 64.1672C72.593 64.7803 74.0397 65.356 77.0001 65.356V67.9202Z" fill="#FF2A00"/>
<path d="M25.6655 49.9786C22.2114 49.9786 20.463 49.2802 18.7733 48.6058C17.2411 47.9928 15.7943 47.4143 12.834 47.4143C9.87369 47.4143 8.4269 47.9928 6.8947 48.6058C5.205 49.2802 3.45658 49.9786 0.00244141 49.9786V47.4143C2.96275 47.4143 4.40953 46.8359 5.94174 46.2228C7.63144 45.5485 9.37986 44.8501 12.834 44.8501C16.2881 44.8501 18.0366 45.5485 19.7262 46.2228C21.2585 46.8359 22.7052 47.4143 25.6655 47.4143C26.469 47.4143 27.1844 47.3744 27.8571 47.2891L28.1801 49.832C27.4006 49.9306 26.5785 49.9786 25.6655 49.9786Z" fill="#FF2A00"/>
<path d="M77.0002 49.9786C73.5461 49.9786 71.7977 49.2802 70.108 48.6058C68.5758 47.9928 67.129 47.4143 64.1687 47.4143C61.2084 47.4143 59.7616 47.9928 58.2294 48.6058C56.5397 49.2802 54.7912 49.9786 51.3371 49.9786C50.9047 49.9786 50.5016 49.9679 50.1226 49.9466L50.2667 47.3877C50.6004 47.4063 50.9581 47.4143 51.3371 47.4143C54.2974 47.4143 55.7442 46.8359 57.2764 46.2228C58.9661 45.5485 60.7145 44.8501 64.1687 44.8501C67.6228 44.8501 69.3712 45.5485 71.0609 46.2228C72.5931 46.8359 74.0399 47.4143 77.0002 47.4143V49.9786Z" fill="#FF2A00"/>
<path d="M0 32.0372V29.4729C2.94162 29.4729 4.26028 28.9025 5.65368 28.2974C7.15385 27.647 8.8569 26.9087 12.3324 26.9087V29.4729C9.39076 29.4729 8.07211 30.0434 6.67871 30.6484C5.17853 31.2988 3.47549 32.0372 0 32.0372Z" fill="#FF2A00"/>
<path d="M77 32.037C73.5432 32.037 71.7974 31.3386 70.1051 30.6643C68.7891 30.1391 67.5478 29.6434 65.3696 29.5101L65.5271 26.9512C68.1164 27.1111 69.6112 27.7082 71.058 28.2839C72.5902 28.897 74.037 29.4728 76.9973 29.4728V32.037H77Z" fill="#FF2A00"/>
<path d="M15.2099 74.3281C13.4508 74.3281 11.972 73.2886 11.4461 71.6813L10.7974 69.6981L13.2399 68.9038L13.8859 70.8843C14.0968 71.5347 14.708 71.7666 15.2099 71.7666C15.2259 71.7666 15.2739 71.7639 15.3967 71.7346L19.5449 70.7537C20.1188 70.6204 20.5326 70.1166 20.5326 69.5595C20.5326 69.4795 20.5326 69.4022 20.5192 69.3223L18.7815 57.7672L10.2556 59.7797L11.5796 63.8313L9.13978 64.6283L6.94824 57.9271L20.9036 54.6299L23.0578 68.9358C23.0898 69.1437 23.1005 69.3516 23.1005 69.5595C23.1005 71.2921 21.8539 72.8434 20.1375 73.2513L15.992 74.2295C15.8078 74.2722 15.5275 74.3308 15.2099 74.3308V74.3281Z" fill="#FF2A00"/>
<path d="M51.548 69.9911L48.6631 73.3145L50.6035 74.994L53.4884 71.6707L51.548 69.9911Z" fill="#FF2A00"/>
<path d="M50.4108 67.3925L48.4702 65.7132L59.863 52.5882C60.5944 51.7459 61.6541 51.2607 62.7726 51.2607H70.5831C71.9978 51.2607 73.151 52.4096 73.151 53.825V56.3892C73.151 57.802 72.0005 58.9535 70.5831 58.9535H64.5317L57.9944 66.4862L56.0538 64.807L63.3598 56.3919H70.5858V53.8276H62.7752C62.4042 53.8276 62.0519 53.9902 61.8063 54.2701L50.4135 67.3952L50.4108 67.3925Z" fill="#FF2A00"/>
<path d="M45.9785 68.5795L43.1216 71.8706L45.062 73.5502L47.9189 70.2591L45.9785 68.5795Z" fill="#FF2A00"/>
<path d="M68.0176 52.543H65.4497V57.6688H68.0176V52.543Z" fill="#FF2A00"/>
<path d="M39.7837 0H37.2158V6.40793H39.7837V0Z" fill="#FF2A00"/>
<path d="M15.6342 3.55149L13.8203 5.36279L19.0431 10.5781L20.857 8.76677L15.6342 3.55149Z" fill="#FF2A00"/>
<path d="M61.4395 2.19107L56.1602 7.46289L57.9741 9.2742L63.2534 4.00237L61.4395 2.19107Z" fill="#FF2A00"/>
<path d="M33.3666 43.5707C23.741 43.5707 14.6945 39.0633 9.16632 31.5118L8.61377 30.7548L9.16632 29.9978C14.6945 22.4464 23.741 17.939 33.3666 17.939C40.8435 17.939 48.3817 21.1083 54.1795 26.6659L66.7335 21.0923V40.4147L54.1795 34.8411C48.3817 40.3987 40.8461 43.568 33.3666 43.568V43.5707ZM11.8143 30.7548C16.8994 37.1921 24.8834 41.0065 33.3666 41.0065C40.4377 41.0065 47.5889 37.8745 52.9863 32.4181L53.611 31.7864L64.1682 36.4697V25.0373L53.611 29.7206L52.9863 29.0889C47.5889 23.6325 40.4377 20.5005 33.3666 20.5005C24.8834 20.5005 16.8994 24.3149 11.8143 30.7522V30.7548Z" fill="#FF2A00"/>
<path d="M55.1861 28.1934H52.6182V33.3192H55.1861V28.1934Z" fill="#FF2A00"/>
<path d="M22.6869 21.3695L21.0159 18.0136C20.6955 17.3765 20.5327 16.7022 20.5327 16.0198C20.5327 13.5462 22.5481 11.5337 25.0252 11.5337C26.7283 11.5337 28.2631 12.4853 29.0319 14.0206L31.4397 18.8053L29.1467 19.9568L26.7363 15.1695C26.4053 14.5084 25.7486 14.0979 25.0226 14.0979C23.9602 14.0979 23.098 14.9589 23.098 16.0198C23.098 16.3023 23.17 16.5902 23.3115 16.8701L24.9825 20.2286L22.6842 21.3695H22.6869Z" fill="#FF2A00"/>
<path d="M51.0487 25.3384L48.7504 24.1976L51.1181 19.4369C51.2622 19.1517 51.3343 18.8638 51.3343 18.5813C51.3343 17.5204 50.4721 16.6595 49.4097 16.6595C48.6863 16.6595 48.0297 17.0699 47.6987 17.7283L45.4751 22.1451L43.1821 20.9936L45.4057 16.5795C46.1745 15.0468 47.7093 14.0952 49.4124 14.0952C51.8895 14.0952 53.9049 16.1077 53.9049 18.5813C53.9049 19.2663 53.7421 19.9381 53.4191 20.5804L51.054 25.3358L51.0487 25.3384Z" fill="#FF2A00"/>
<path d="M24.6568 41.1503L22.3398 40.0468C23.6745 37.2533 24.3819 34.0387 24.3819 30.7574C24.3819 29.5233 24.2805 28.2891 24.0856 27.0897L26.6161 26.6738C26.835 28.0066 26.9471 29.382 26.9471 30.7574C26.9471 34.4199 26.1543 38.0157 24.6542 41.1503H24.6568Z" fill="#FF2A00"/>
<path d="M34.6506 37.163V34.5987C36.0653 34.5987 37.2185 33.4499 37.2185 32.0345C37.2185 30.6191 36.068 29.4703 34.6506 29.4703C33.5641 29.4703 32.5925 30.1553 32.2295 31.1789L29.811 30.3232C30.5344 28.2814 32.4804 26.9087 34.6506 26.9087C37.4827 26.9087 39.7837 29.2064 39.7837 32.0345C39.7837 34.8626 37.4827 37.1603 34.6506 37.1603V37.163Z" fill="#FF2A00"/>
<path d="M39.4852 42.6537L37.622 40.8892C38.244 40.2334 38.5002 39.5271 38.5002 38.4449C38.5002 37.0748 38.0117 36.0805 37.0107 35.4062L38.4469 33.2817C40.1606 34.4386 41.0655 36.2218 41.0655 38.4449C41.0655 40.1828 40.5636 41.5209 39.4826 42.6537H39.4852Z" fill="#FF2A00"/>
<path d="M44.9173 34.6014H43.6333V32.0372H44.9173C45.6246 32.0372 46.2012 31.4641 46.2012 30.7551C46.2012 30.046 45.6246 29.4729 44.9173 29.4729H43.6333V26.9087H44.9173C47.0394 26.9087 48.7665 28.6333 48.7665 30.7524C48.7665 32.8715 47.0394 34.5961 44.9173 34.5961V34.6014Z" fill="#FF2A00"/>
<path d="M37.0504 51.2608C35.9586 51.2608 34.9336 50.781 34.2342 49.944L28.3296 42.8324L30.3049 41.1958L36.2068 48.3047C36.5111 48.6699 37.053 48.7952 37.4721 48.6139C39.3407 47.8276 45.8352 44.8795 51.0911 39.903C51.2459 39.7564 51.334 39.5405 51.334 39.3112C51.334 39.0953 51.2486 38.8901 51.0965 38.7382L49.5749 37.2188L51.3901 35.4062L52.9116 36.9229C53.5496 37.56 53.9019 38.4076 53.9019 39.3086C53.9019 40.2095 53.5229 41.1291 52.8609 41.7582C47.29 47.0333 40.4404 50.144 38.4758 50.9703C38.0273 51.1595 37.5495 51.2582 37.053 51.2582L37.0504 51.2608Z" fill="#FF2A00"/>
</g>
<defs>
<clipPath id="clip0_185_1073">
<rect width="77" height="75" fill="white"/>
</clipPath>
</defs>
</svg>
