<svg width="78" height="73" viewBox="0 0 78 73" fill="none" xmlns="http://www.w3.org/2000/svg">
<g clip-path="url(#clip0_185_1098)">
<path d="M38.9998 71.2725C19.8239 71.2725 4.22559 55.675 4.22559 36.5C4.22559 17.3251 19.8239 1.72754 38.9998 1.72754C58.1757 1.72754 73.7741 17.3251 73.7741 36.5C73.7741 55.675 58.1757 71.2725 38.9998 71.2725ZM38.9998 4.40363C21.3011 4.40363 6.90181 18.8022 6.90181 36.5C6.90181 54.1979 21.3011 68.5964 38.9998 68.5964C56.6985 68.5964 71.0978 54.1979 71.0978 36.5C71.0978 18.8022 56.6985 4.40363 38.9998 4.40363Z" fill="#FF2A00"/>
<path d="M15.1031 70.3849C8.12883 65.4806 2.90713 58.6401 0 50.6035L2.51487 49.6938C5.23283 57.2103 10.1179 63.6084 16.6416 68.1956L15.1031 70.3849Z" fill="#FF2A00"/>
<path d="M19.3179 73C18.6225 72.6245 17.9826 72.2294 17.3149 71.8177L18.6531 69.5005C19.343 69.9289 19.9411 70.2961 20.5893 70.6466L19.3179 73Z" fill="#FF2A00"/>
<path d="M75.4822 23.3058C72.7614 15.7894 67.8791 9.39121 61.3555 4.80402L62.8939 2.61475C69.8682 7.51906 75.0899 14.3595 77.997 22.3961L75.4822 23.3058Z" fill="#FF2A00"/>
<path d="M59.3444 3.4995C58.6545 3.07111 58.0564 2.70391 57.4082 2.3534L58.6795 0C59.375 0.375543 60.0149 0.770559 60.6825 1.18227L59.3444 3.4995Z" fill="#FF2A00"/>
<path d="M47.51 14.1177C45.1982 7.94208 42.0963 4.40085 39 4.40085C35.9037 4.40085 32.8019 7.94208 30.4901 14.1177L27.9863 13.1802C30.7516 5.79453 34.6658 1.72754 39.0028 1.72754C43.3398 1.72754 47.2513 5.79453 50.0193 13.1802L47.5128 14.1177H47.51Z" fill="#FF2A00"/>
<path d="M39.0002 57.8978C27.202 57.8978 17.6016 48.2978 17.6016 36.5001C17.6016 24.7025 27.202 15.1025 39.0002 15.1025C50.7984 15.1025 60.3989 24.7025 60.3989 36.5001C60.3989 48.2978 50.7984 57.8978 39.0002 57.8978ZM39.0002 17.7758C28.6765 17.7758 20.275 26.1741 20.275 36.5001C20.275 46.8262 28.6737 55.2244 39.0002 55.2244C49.3268 55.2244 57.7255 46.8262 57.7255 36.5001C57.7255 26.1741 49.3268 17.7758 39.0002 17.7758Z" fill="#FF2A00"/>
<path d="M15.6788 47.5157C8.29278 44.7506 4.22559 40.8366 4.22559 36.4998C4.22559 32.163 8.29278 28.2518 15.6788 25.4839L16.6163 27.9903C10.4404 30.302 6.89903 33.4037 6.89903 36.4998C6.89903 39.596 10.4404 42.6977 16.6163 45.0093L15.6788 47.5157Z" fill="#FF2A00"/>
<path d="M38.9999 71.2725C34.6628 71.2725 30.7514 67.2055 27.9834 59.8198L30.4871 58.8823C32.7989 65.0579 35.9008 68.5992 38.9971 68.5992C42.0934 68.5992 45.1953 65.0579 47.507 58.8823L50.0136 59.8198C47.2483 67.2055 43.3341 71.2725 38.9971 71.2725H38.9999Z" fill="#FF2A00"/>
<path d="M62.3208 47.5157L61.3833 45.0093C67.5592 42.6977 71.1006 39.596 71.1006 36.4998C71.1006 33.4037 67.5592 30.302 61.3833 27.9903L62.3208 25.4839C69.7069 28.249 73.7741 32.163 73.7741 36.4998C73.7741 40.8366 69.7069 44.7479 62.3208 47.5157Z" fill="#FF2A00"/>
<path d="M52.2386 21.3698L23.8667 49.7402L25.7571 51.6305L54.129 23.2601L52.2386 21.3698Z" fill="#FF2A00"/>
<path d="M47.023 48.5371H30.974C28.7623 48.5371 26.9624 46.7373 26.9624 44.5257V27.1395C26.9624 25.6651 28.1614 24.4634 29.6386 24.4634H33.6502C35.1246 24.4634 36.3264 25.6623 36.3264 27.1395V33.8269H40.338V36.503H33.6502V27.1423H29.6386V44.5285C29.6386 45.2657 30.2367 45.8665 30.9767 45.8665H47.0257C47.763 45.8665 48.3639 45.2657 48.3639 44.5285V25.8042H51.0401V44.5285C51.0401 46.74 49.2402 48.5399 47.0285 48.5399L47.023 48.5371Z" fill="#FF2A00"/>
</g>
<defs>
<clipPath id="clip0_185_1098">
<rect width="78" height="73" fill="white"/>
</clipPath>
</defs>
</svg>
