<svg width="80" height="75" viewBox="0 0 80 75" fill="none" xmlns="http://www.w3.org/2000/svg">
<g clip-path="url(#clip0_185_1049)">
<path d="M41.0274 61.6047L31.8375 55.5439C30.1851 55.4746 24.2444 54.9835 18.1139 51.5313L8.43358 55.1221C6.04269 56.009 3.20806 55.4312 1.5178 53.5448C0.373441 52.2708 -0.163707 50.5606 0.0406426 48.8533C0.350086 46.2967 2.36731 44.2197 5.05597 43.6881L11.8871 42.3361C13.8576 41.9461 15.7026 41.1893 17.3695 40.0915L18.9255 42.4026C16.952 43.7054 14.7684 44.601 12.4388 45.0603L5.60771 46.4123C4.13347 46.7041 2.98912 47.8423 2.82856 49.1827C2.71762 50.1158 2.99496 51.0084 3.61384 51.6989C4.54801 52.7417 6.12151 53.0104 7.44394 52.5164L18.3825 48.4576L18.9634 48.8013C25.5698 52.7244 32.2111 52.7706 32.2754 52.7706H32.7016L40.3705 57.8319L43.9642 53.0913L47.4235 51.1875C56.4966 46.2014 58.7707 38.468 60.1311 33.8458L60.4581 32.7799L63.8737 24.8933L70.4625 24.0758L67.6395 22.2125L71.382 19.7454L67.3797 18.1623L67.2221 17.4372C66.609 14.5715 64.0109 12.4944 61.0478 12.4944C59.051 12.4944 57.2148 13.3986 56.0091 14.9759L51.2857 21.1234L49.0525 19.4421L53.7759 13.2975C55.5158 11.024 58.1694 9.71826 61.0507 9.71826C65.0706 9.71826 68.6262 12.3702 69.7794 16.1228L77.3841 19.133L72.7045 22.2212L78.3008 25.9131L65.8237 27.4557L63.0767 33.7996L62.8315 34.6229C61.4477 39.3231 58.8729 48.0763 48.7897 53.617L45.8529 55.2319L41.0244 61.6018L41.0274 61.6047Z" fill="#FF2A00"/>
<path d="M41.9043 59.0103L39.4961 60.4399L43.7056 67.3837L46.1139 65.954L41.9043 59.0103Z" fill="#FF2A00"/>
<path d="M78.5958 65.2764H0V68.0554H78.5958V65.2764Z" fill="#FF2A00"/>
<path d="M29.0879 61.4658L22.5283 53.3568L24.7207 51.6206L29.8616 57.976L35.2622 55.3039L36.5175 57.7883L29.0879 61.4658Z" fill="#FF2A00"/>
<path d="M28.2679 59.0028L24.0571 65.9458L26.4651 67.3759L30.6759 60.4329L28.2679 59.0028Z" fill="#FF2A00"/>
<path d="M26.6677 72.2207H23.8594V74.9998H26.6677V72.2207Z" fill="#FF2A00"/>
<path d="M61.7546 72.2207H29.4731V74.9998H61.7546V72.2207Z" fill="#FF2A00"/>
<path d="M63.1584 47.2207H60.3501V49.9998H63.1584V47.2207Z" fill="#FF2A00"/>
<path d="M74.386 47.2207H65.9639V49.9998H74.386V47.2207Z" fill="#FF2A00"/>
<path d="M68.7722 4.16553H65.9639V6.94459H68.7722V4.16553Z" fill="#FF2A00"/>
<path d="M79.9998 4.16553H71.5776V6.94459H79.9998V4.16553Z" fill="#FF2A00"/>
<path d="M57.5447 54.1655H54.7363V56.9446H57.5447V54.1655Z" fill="#FF2A00"/>
<path d="M68.7722 54.1655H60.3501V56.9446H68.7722V54.1655Z" fill="#FF2A00"/>
<path d="M31.5777 47.2209C23.5468 47.2209 14.5758 42.0845 10.2495 35.004C9.96921 34.5446 9.82324 34.016 9.82324 33.4758C9.82324 31.8667 11.1486 30.5552 12.7746 30.5552C14.4007 30.5552 16.0355 30.3298 17.6119 29.8849L18.7825 29.5527L19.5532 32.2249L18.3826 32.5571C16.5551 33.0713 14.6692 33.3342 12.7746 33.3342C12.6958 33.3342 12.6287 33.3978 12.6287 33.4758C16.4996 39.8688 24.4605 44.4447 31.5748 44.4447C38.6891 44.4447 45.2283 40.7094 48.9591 34.4493L51.3763 35.8591C47.1346 42.9743 39.7342 47.2209 31.5748 47.2209H31.5777Z" fill="#FF2A00"/>
<path d="M61.3514 34.6631C59.629 34.1518 58.1227 33.6983 56.7915 33.2938C49.8202 31.1879 47.7154 30.5552 43.7218 30.5552C40.0173 30.5552 37.7899 31.211 35.4311 31.9043C33.046 32.6063 30.5792 33.3314 26.6674 33.3314C18.219 33.3314 12.8767 30.3616 11.6185 24.9711L8.65251 12.2515C8.50071 11.5929 8.4248 10.9227 8.4248 10.2582C8.4248 5.20275 12.0447 1.3866 16.8469 1.3866C19.4801 1.3866 20.7617 1.06883 22.1221 0.733724C23.5846 0.372619 25.0968 -0.00292969 28.0774 -0.00292969H58.9547C60.5019 -0.00292969 61.763 1.24216 61.763 2.77613V4.46899C61.763 5.74586 60.8872 6.85517 59.6348 7.16428L50.2873 9.47824C50.1063 10.1773 49.9516 10.7724 49.8202 11.2838C49.2626 13.4186 49.1313 13.953 49.1313 14.6897C49.1313 17.0701 52.8417 23.2753 59.6465 26.1613L64.0605 27.9986L62.9716 30.5581L58.5489 28.715C50.9704 25.4997 46.3229 18.3787 46.3229 14.6868C46.3229 13.5688 46.5185 12.8177 47.0995 10.5875C47.2804 9.89712 47.4994 9.05069 47.768 7.99048L47.9723 7.1845L58.9547 4.46899V2.77613H28.0774C25.4442 2.77613 24.1627 3.0939 22.8023 3.42901C21.3397 3.79011 19.8275 4.16566 16.8469 4.16566C13.5949 4.16566 11.2332 6.72806 11.2332 10.2582C11.2332 10.7147 11.2857 11.1769 11.3908 11.6304L14.3568 24.35C15.5537 29.4777 21.7134 30.5552 26.6703 30.5552C30.1735 30.5552 32.3396 29.9168 34.6312 29.2437C37.0805 28.5243 39.6086 27.779 43.7218 27.779C48.1358 27.779 50.5238 28.4983 57.6118 30.639C58.9401 31.0405 60.4435 31.4941 62.16 32.0025L61.3543 34.6631H61.3514Z" fill="#FF2A00"/>
<path d="M20.6304 43.8959L19.8101 41.2411C23.0417 40.2646 25.7654 38.3638 27.6921 35.7407L29.9633 37.3729C27.6775 40.4871 24.4488 42.7433 20.6304 43.8959Z" fill="#FF2A00"/>
<path d="M29.8205 46.9406L28.6323 44.4244C31.9428 42.8933 34.2023 40.614 35.7379 37.2485L38.2951 38.3925C36.491 42.3416 33.7177 45.138 29.8205 46.9406Z" fill="#FF2A00"/>
<path d="M23.3502 5.19806L16.4033 15.5098L18.74 17.0513L25.6869 6.73961L23.3502 5.19806Z" fill="#FF2A00"/>
<path d="M27.5917 12.0968L20.6318 22.4277L22.9685 23.9693L29.9284 13.6383L27.5917 12.0968Z" fill="#FF2A00"/>
<path d="M38.7882 5.19855L31.8413 15.5103L34.178 17.0518L41.1249 6.7401L38.7882 5.19855Z" fill="#FF2A00"/>
<path d="M41.618 12.1134L34.6387 22.4731L36.9754 24.0147L43.9546 13.6549L41.618 12.1134Z" fill="#FF2A00"/>
</g>
<defs>
<clipPath id="clip0_185_1049">
<rect width="80" height="75" fill="white"/>
</clipPath>
</defs>
</svg>
